<?xml version="1.0" encoding="UTF-8"?>
<svg width="375px" height="667px" viewBox="0 0 375 667" version="1.1" xmlns="http://www.w3.org/2000/svg" xmlns:xlink="http://www.w3.org/1999/xlink">
    <!-- Generator: Sketch 51.2 (57519) - http://www.bohemiancoding.com/sketch -->
    <title>Home Screen</title>
    <desc>Created with Sketch.</desc>
    <defs>
        <linearGradient x1="20%" y1="0%" x2="80%" y2="100%" id="linearGradient-1">
            <stop stop-color="#634C2F" offset="0%"></stop>
            <stop stop-color="#30271B" offset="100%"></stop>
        </linearGradient>
        <linearGradient x1="1.2246468e-15%" y1="80%" x2="100%" y2="20%" id="linearGradient-2">
            <stop stop-color="#8FD694" offset="0%"></stop>
            <stop stop-color="#52B788" offset="100%"></stop>
        </linearGradient>
        <linearGradient x1="40.0605433%" y1="21.793832%" x2="78.2418561%" y2="68.2483118%" id="linearGradient-3">
            <stop stop-color="#E56399" offset="0%"></stop>
            <stop stop-color="#FF3B8C" offset="100%"></stop>
        </linearGradient>
        <linearGradient x1="20%" y1="0%" x2="80%" y2="100%" id="linearGradient-4">
            <stop stop-color="#8FD694" offset="0%"></stop>
            <stop stop-color="#52B788" offset="100%"></stop>
        </linearGradient>
        <linearGradient x1="0%" y1="-33.4043611%" x2="100%" y2="123.516826%" id="linearGradient-5">
            <stop stop-color="#52B788" offset="0%"></stop>
            <stop stop-color="#E56399" offset="100%"></stop>
        </linearGradient>
    </defs>
    <g id="Home-Screen" stroke="none" stroke-width="1" fill="none" fill-rule="evenodd">
        <rect id="Rectangle-2" fill="url(#linearGradient-1)" x="0" y="0" width="381" height="667"></rect>
        <g id="Logo/Gradient-Text/Medium" transform="translate(69.000000, 223.000000)">
            <g>
                <path d="M120.5,121.320182 C104.772605,130.973589 87.6023703,135.800293 68.9892961,135.800293 C50.1081903,135.800293 27.3040501,125.866862 0.576875524,106 C24.6960424,86.1331378 47.5001826,76.1997067 68.9892961,76.1997067 C87.7754886,76.1997067 107.445786,79.8002942 120.499544,90.5301495 C133.518859,79.8002942 152.196369,76.1997067 172.010704,76.1997067 C193.499817,76.1997067 216.303958,86.1331378 240.423124,106 C213.69595,125.866862 190.89181,135.800293 172.010704,135.800293 C153.39763,135.800293 136.227395,130.973589 120.5,121.320182 Z" id="Combined-Shape" fill-opacity="0.799999952" fill="url(#linearGradient-2)"></path>
                <path d="M122,0 C102,27.2586837 92,50.5163178 92,69.7729021 C92,89.0294865 102,106.771852 122,123 C142,109.431724 152,91.6893583 152,69.7729021 C152,47.856446 142,24.5988119 122,0 Z" id="Path-2" fill="url(#linearGradient-3)"></path>
                <path d="M70,31 C50,57.8154531 40,80.6949143 40,99.6383834 C40,118.581853 50,136.035725 70,152 C90,138.652347 100,121.198474 100,99.6383834 C100,78.0782924 90,55.1988313 70,31 Z" id="Path-2" fill-opacity="0.799999952" fill="url(#linearGradient-4)" transform="translate(70.000000, 91.500000) rotate(-60.000000) translate(-70.000000, -91.500000) "></path>
                <path d="M172,31 C152,57.8154531 142,80.6949143 142,99.6383834 C142,118.581853 152,136.035725 172,152 C192,138.652347 202,121.198474 202,99.6383834 C202,78.0782924 192,55.1988313 172,31 Z" id="Path-2" fill-opacity="0.799999952" fill="url(#linearGradient-4)" transform="translate(172.000000, 91.500000) scale(-1, 1) rotate(-60.000000) translate(-172.000000, -91.500000) "></path>
                <path d="M150,8 C130,34.8154531 120,57.6949143 120,76.6383834 C120,95.5818526 130,113.035725 150,129 C170,115.652347 180,98.1984744 180,76.6383834 C180,55.0782924 170,32.1988313 150,8 Z" id="Path-2" fill-opacity="0.899999976" fill="url(#linearGradient-4)" transform="translate(150.000000, 68.500000) scale(-1, 1) rotate(-30.000000) translate(-150.000000, -68.500000) "></path>
                <path d="M92,8 C72,34.8154531 62,57.6949143 62,76.6383834 C62,95.5818526 72,113.035725 92,129 C112,115.652347 122,98.1984744 122,76.6383834 C122,55.0782924 112,32.1988313 92,8 Z" id="Path-2" fill-opacity="0.899999976" fill="url(#linearGradient-4)" transform="translate(92.000000, 68.500000) rotate(-30.000000) translate(-92.000000, -68.500000) "></path>
                <path d="M29.9244774,153 L30.8260283,153 C33.8097474,153 36.2567897,154.649983 38.1672286,157.95 C38.6180063,157.95 38.9614508,163.53456 39.1975725,174.703846 C39.1975725,179.886564 37.9525861,183.017302 35.4625759,184.096154 C32.8867032,185.365391 30.6543138,186 28.7653405,186 C26.3611927,185.851922 25.1591369,185.259621 25.1591369,184.223077 C24.5580999,177.474966 24.257586,172.186558 24.257586,168.357692 L24,167.976923 C24.6010369,158.838416 25.0303426,154.269231 25.2879299,154.269231 C26.3182789,153.423073 27.8637793,153 29.9244774,153 Z M27.9925826,159.219231 L27.9925826,169.626923 L28.2501686,170.007692 L28.2501686,176.861538 C28.2501686,179.65386 28.7653354,181.05 29.7956844,181.05 C30.0532717,181.303847 30.611369,181.430769 31.4699933,181.430769 L31.7275792,181.430769 C34.2175894,181.092306 35.4625759,179.865395 35.4625759,177.75 C35.7201631,175.973068 35.8489548,173.265403 35.8489548,169.626923 L35.8489548,168.611538 C35.8489548,165.036521 34.9044824,161.651939 33.0155091,158.457692 C32.0924881,157.526918 31.2338768,157.061538 30.4396494,157.061538 L30.0532704,157.061538 C28.8511965,157.061538 28.1643074,157.780762 27.9925826,159.219231 Z M47.4725219,154.015385 C52.1949551,154.015385 54.5561362,154.776915 54.5561362,156.3 C54.6419986,156.3 54.6849292,156.374038 54.6849292,156.522115 C54.0838923,157.727891 53.0106281,158.330769 51.4651045,158.330769 C48.9750943,158.330769 47.7301079,158.849033 47.7301079,159.885577 L47.3437289,167.088462 C47.3437289,167.659618 48.1594097,168.05096 49.7907957,168.2625 C51.4221817,168.537501 52.2378624,169.055765 52.2378624,169.817308 L52.2378624,170.198077 C52.2378624,171.150005 50.7782232,171.869228 47.8589009,172.355769 C47.1720015,172.609617 46.828557,173.519223 46.828557,175.084615 L46.828557,175.465385 C46.828557,179.928868 47.3866543,182.160577 48.5028658,182.160577 C51.6797754,182.329809 53.2682063,182.647113 53.2682063,183.1125 C53.4399312,183.831734 53.5257923,184.318268 53.5257923,184.572115 C53.5257923,185.333658 51.3363334,185.809614 46.95735,186 L46.313385,186 C44.3385494,186 43.3511463,184.244248 43.3511463,180.732692 C43.2652839,177.982679 43.2223533,176.100005 43.2223533,175.084615 C43.0506285,175.084615 42.9647674,175.010578 42.9647674,174.8625 L42.9647674,163.471154 C43.2223546,158.20382 44.0380354,155.168273 45.4118341,154.364423 C46.0343367,154.13173 46.7212257,154.015385 47.4725219,154.015385 Z M66.1797033,154.776923 C68.6482479,154.776923 70.4084011,156.173063 71.4602158,158.965385 C71.6319406,160.425007 71.7178018,161.31346 71.7178018,161.630769 C71.7178018,164.000012 71.2884961,165.184615 70.4298719,165.184615 L70.1722859,165.311538 C68.970212,165.311538 68.3691841,164.380779 68.3691841,162.519231 C67.8540096,159.896141 66.9953982,158.584615 65.7933243,158.584615 L65.5357384,158.584615 C63.6896963,158.584615 62.4876405,159.853833 61.9295347,162.392308 L61.9295347,163.153846 C61.9295347,165.650012 63.6038268,167.807683 66.9524612,169.626923 C70.1293708,171.80578 71.7178018,173.709607 71.7178018,175.338462 L71.7178018,177.369231 C71.7178018,180.563478 70.4298848,183.228835 67.8540121,185.365385 C66.9095255,185.788464 65.7933308,186 64.5053945,186 C61.8221938,186 60.1479017,185.365391 59.482468,184.096154 C58.4521189,182.911533 57.9369521,181.303856 57.9369521,179.273077 C58.0872114,177.580761 58.8599616,176.734615 60.2552259,176.734615 C60.8562628,176.734615 61.4572908,178.257677 62.0583277,181.303846 C62.6593647,182.403852 63.3033232,182.953846 63.9902225,182.953846 L64.5053945,182.953846 C66.2655741,182.953846 67.2959077,181.176941 67.5964262,177.623077 L67.5964262,176.988462 C67.5964262,174.724989 65.5786895,172.567318 61.5431558,170.515385 C59.0531456,168.484605 57.8081591,165.77694 57.8081591,162.392308 C57.8081591,159.134599 59.0960761,156.934621 61.6719488,155.792308 C63.2818691,155.115381 64.784439,154.776923 66.1797033,154.776923 Z M80.2181389,154.015385 C84.940572,154.015385 87.3017532,154.776915 87.3017532,156.3 C87.3876156,156.3 87.4305462,156.374038 87.4305462,156.522115 C86.8295092,157.727891 85.7562451,158.330769 84.2107215,158.330769 C81.7207113,158.330769 80.4757249,158.849033 80.4757249,159.885577 L80.0893459,167.088462 C80.0893459,167.659618 80.9050267,168.05096 82.5364127,168.2625 C84.1677987,168.537501 84.9834794,169.055765 84.9834794,169.817308 L84.9834794,170.198077 C84.9834794,171.150005 83.5238402,171.869228 80.6045179,172.355769 C79.9176185,172.609617 79.574174,173.519223 79.574174,175.084615 L79.574174,175.465385 C79.574174,179.928868 80.1322713,182.160577 81.2484828,182.160577 C84.4253924,182.329809 86.0138233,182.647113 86.0138233,183.1125 C86.1855482,183.831734 86.2714093,184.318268 86.2714093,184.572115 C86.2714093,185.333658 84.0819504,185.809614 79.702967,186 L79.059002,186 C77.0841663,186 76.0967633,184.244248 76.0967633,180.732692 C76.0109009,177.982679 75.9679703,176.100005 75.9679703,175.084615 C75.7962455,175.084615 75.7103844,175.010578 75.7103844,174.8625 L75.7103844,163.471154 C75.9679716,158.20382 76.7836524,155.168273 78.1574511,154.364423 C78.7799537,154.13173 79.4668427,154.015385 80.2181389,154.015385 Z M93.6770061,154.713462 C99.8161692,154.692308 102.885705,154.988458 102.885705,155.601923 C105.39718,157.505779 106.6529,160.149983 106.6529,163.534615 L106.6529,163.788462 C106.6529,166.369244 105.311319,168.70672 102.628119,170.800962 C102.434928,171.097117 102.338334,171.361537 102.338334,171.594231 L102.338334,171.848077 C102.338334,172.123078 103.411599,175.126894 105.558159,180.859615 C106.373852,182.911549 106.781693,184.13846 106.781693,184.540385 C106.781693,185.365389 106.159199,185.851922 104.914194,186 C103.86238,186 102.789115,184.37117 101.69437,181.113462 C99.5907402,175.973051 98.3350211,173.106734 97.9271746,172.514423 C97.583725,172.260576 97.1866172,172.133654 96.7358395,172.133654 L96.0596763,172.133654 C94.9863961,172.133654 94.449764,172.969222 94.449764,174.640385 C94.449764,181.853882 93.998993,185.460577 93.0974376,185.460577 L92.4212744,185.619231 C91.3479942,185.619231 90.8113621,184.603856 90.8113621,182.573077 C90.6396373,179.548062 90.5537761,177.337507 90.5537761,175.941346 C90.5537761,174.545185 90.5967067,171.594253 90.6825691,167.088462 C90.6825691,166.961538 90.6396386,166.263468 90.5537761,164.994231 C90.6396386,163.894225 90.6825691,162.392317 90.6825691,160.488462 L90.6825691,159.695192 C90.8113627,157.304796 91.1655399,155.855772 91.7451113,155.348077 L93.6770061,154.713462 Z M94.449764,159.028846 L94.449764,160.774038 C94.449764,162.191353 94.4068334,164.084604 94.320971,166.453846 C94.320971,168.040393 94.9863948,168.833654 96.3172623,168.833654 C98.4852884,168.833654 100.363501,168.0827 101.951955,166.580769 C102.853511,165.544226 103.304282,164.349045 103.304282,162.995192 C103.304282,160.350948 102.048563,158.637504 99.537087,157.854808 C99.0648437,157.770192 98.6140727,157.727885 98.1847606,157.727885 C95.6947504,157.727885 94.449764,158.161534 94.449764,159.028846 Z M123.524781,154.65 L125.070297,154.65 C126.873408,155.051925 127.774949,155.686534 127.774949,156.553846 C127.774949,157.653852 126.186518,158.203846 123.009609,158.203846 C121.807535,158.457694 121.206507,158.711537 121.206507,158.965385 C121.120645,159.113462 121.077714,159.324999 121.077714,159.6 C121.077714,163.873098 121.206506,171.065334 121.464093,181.176923 C121.464093,184.307708 121.077718,185.873077 120.304956,185.873077 L119.660991,186 C118.20133,186 117.47151,184.646167 117.47151,181.938462 C117.299786,177.453824 117.213924,174.111549 117.213924,171.911538 C117.213924,169.732681 117.299786,166.644251 117.47151,162.646154 C117.47151,160.023064 117.085135,158.711538 116.312374,158.711538 L112.577377,158.711538 C111.289441,158.605769 110.645482,157.97116 110.645482,156.807692 C110.645482,155.855764 111.547024,155.30577 113.350135,155.157692 C116.097732,154.819229 119.489247,154.65 123.524781,154.65 Z M148.961396,154.713462 C155.100559,154.692308 158.170094,154.988458 158.170094,155.601923 C160.68157,157.505779 161.937289,160.149983 161.937289,163.534615 L161.937289,163.788462 C161.937289,166.369244 160.595709,168.70672 157.912508,170.800962 C157.719318,171.097117 157.622724,171.361537 157.622724,171.594231 L157.622724,171.848077 C157.622724,172.123078 158.695988,175.126894 160.842549,180.859615 C161.658242,182.911549 162.066082,184.13846 162.066082,184.540385 C162.066082,185.365389 161.443589,185.851922 160.198584,186 C159.146769,186 158.073505,184.37117 156.978759,181.113462 C154.87513,175.973051 153.619411,173.106734 153.211564,172.514423 C152.868115,172.260576 152.471007,172.133654 152.020229,172.133654 L151.344066,172.133654 C150.270786,172.133654 149.734154,172.969222 149.734154,174.640385 C149.734154,181.853882 149.283383,185.460577 148.381827,185.460577 L147.705664,185.619231 C146.632384,185.619231 146.095752,184.603856 146.095752,182.573077 C145.924027,179.548062 145.838166,177.337507 145.838166,175.941346 C145.838166,174.545185 145.881096,171.594253 145.966959,167.088462 C145.966959,166.961538 145.924028,166.263468 145.838166,164.994231 C145.924028,163.894225 145.966959,162.392317 145.966959,160.488462 L145.966959,159.695192 C146.095752,157.304796 146.44993,155.855772 147.029501,155.348077 L148.961396,154.713462 Z M149.734154,159.028846 L149.734154,160.774038 C149.734154,162.191353 149.691223,164.084604 149.605361,166.453846 C149.605361,168.040393 150.270785,168.833654 151.601652,168.833654 C153.769678,168.833654 155.64789,168.0827 157.236345,166.580769 C158.137901,165.544226 158.588672,164.349045 158.588672,162.995192 C158.588672,160.350948 157.332953,158.637504 154.821477,157.854808 C154.349233,157.770192 153.898462,157.727885 153.46915,157.727885 C150.97914,157.727885 149.734154,158.161534 149.734154,159.028846 Z M174.559002,153.253846 C176.96315,153.253846 178.937956,154.776908 180.483479,157.823077 C180.998654,160.19232 181.256237,163.069214 181.256237,166.453846 C181.256237,176.100048 180.912793,180.923077 180.225893,180.923077 C178.809164,184.307709 176.319191,186 172.7559,186 C169.72925,186 167.711513,184.434631 166.70263,181.303846 C166.445043,179.548068 166.187459,176.290408 165.929872,171.530769 C165.929872,164.592273 166.616761,159.769244 167.99056,157.061538 C169.772205,154.523064 171.961664,153.253846 174.559002,153.253846 Z M169.664869,176.861538 C170.094181,180.584634 171.038653,182.446154 172.498314,182.446154 C172.498314,182.53077 172.670036,182.573077 173.013486,182.573077 C175.160047,182.573077 176.576755,181.430781 177.263655,179.146154 C177.607104,176.50191 178.079341,172.355797 178.680378,166.707692 C178.42279,166.707692 178.293999,166.623078 178.293999,166.453846 L178.293999,162.646154 C178.293999,159.980756 177.564179,158.203851 176.104518,157.315385 C175.567878,157.146153 175.138572,157.061538 174.816588,157.061538 C172.068991,157.971158 170.695212,159.663449 170.695212,162.138462 C170.2659,163.936547 169.922456,168.674962 169.664869,176.353846 L169.664869,176.861538 Z M193.749157,154.776923 C196.217702,154.776923 197.977855,156.173063 199.02967,158.965385 C199.201394,160.425007 199.287256,161.31346 199.287256,161.630769 C199.287256,164.000012 198.85795,165.184615 197.999326,165.184615 L197.74174,165.311538 C196.539666,165.311538 195.938638,164.380779 195.938638,162.519231 C195.423463,159.896141 194.564852,158.584615 193.362778,158.584615 L193.105192,158.584615 C191.25915,158.584615 190.057094,159.853833 189.498989,162.392308 L189.498989,163.153846 C189.498989,165.650012 191.173281,167.807683 194.521915,169.626923 C197.698825,171.80578 199.287256,173.709607 199.287256,175.338462 L199.287256,177.369231 C199.287256,180.563478 197.999339,183.228835 195.423466,185.365385 C194.478979,185.788464 193.362785,186 192.074848,186 C189.391648,186 187.717356,185.365391 187.051922,184.096154 C186.021573,182.911533 185.506406,181.303856 185.506406,179.273077 C185.656665,177.580761 186.429415,176.734615 187.82468,176.734615 C188.425717,176.734615 189.026745,178.257677 189.627782,181.303846 C190.228818,182.403852 190.872777,182.953846 191.559676,182.953846 L192.074848,182.953846 C193.835028,182.953846 194.865362,181.176941 195.16588,177.623077 L195.16588,176.988462 C195.16588,174.724989 193.148143,172.567318 189.11261,170.515385 C186.622599,168.484605 185.377613,165.77694 185.377613,162.392308 C185.377613,159.134599 186.66553,156.934621 189.241403,155.792308 C190.851323,155.115381 192.353893,154.776923 193.749157,154.776923 Z M207.787593,154.015385 C212.510026,154.015385 214.871207,154.776915 214.871207,156.3 C214.957069,156.3 215,156.374038 215,156.522115 C214.398963,157.727891 213.325699,158.330769 211.780175,158.330769 C209.290165,158.330769 208.045179,158.849033 208.045179,159.885577 L207.6588,167.088462 C207.6588,167.659618 208.47448,168.05096 210.105866,168.2625 C211.737252,168.537501 212.552933,169.055765 212.552933,169.817308 L212.552933,170.198077 C212.552933,171.150005 211.093294,171.869228 208.173972,172.355769 C207.487072,172.609617 207.143628,173.519223 207.143628,175.084615 L207.143628,175.465385 C207.143628,179.928868 207.701725,182.160577 208.817937,182.160577 C211.994846,182.329809 213.583277,182.647113 213.583277,183.1125 C213.755002,183.831734 213.840863,184.318268 213.840863,184.572115 C213.840863,185.333658 211.651404,185.809614 207.272421,186 L206.628456,186 C204.65362,186 203.666217,184.244248 203.666217,180.732692 C203.580355,177.982679 203.537424,176.100005 203.537424,175.084615 C203.365699,175.084615 203.279838,175.010578 203.279838,174.8625 L203.279838,163.471154 C203.537425,158.20382 204.353106,155.168273 205.726905,154.364423 C206.349407,154.13173 207.036297,154.015385 207.787593,154.015385 Z" id="Desert-Rose" fill="url(#linearGradient-5)"></path>
            </g>
        </g>
    </g>
</svg>