<?xml version="1.0" encoding="UTF-8"?>
<svg width="519px" height="150px" viewBox="0 0 519 150" version="1.1" xmlns="http://www.w3.org/2000/svg" xmlns:xlink="http://www.w3.org/1999/xlink">
    <!-- Generator: Sketch 51.2 (57519) - http://www.bohemiancoding.com/sketch -->
    <title>stripe</title>
    <desc>Created with Sketch.</desc>
    <defs></defs>
    <g id="stripe" stroke="none" stroke-width="1" fill="none" fill-rule="evenodd">
        <g id="Icons/Cactus-Single" transform="translate(23.000000, 33.000000)" fill="#FFFFFF" fill-rule="nonzero">
            <path d="M11.6252471,107.96482 C10.8193808,102.992767 10.0135145,98.4311421 9.34779885,93.8929706 C8.09812213,85.2270564 6.66157787,76.5728688 5.84403235,67.8600485 C5.4936557,64.0958287 4.57099719,61.9967777 0.00442151945,62.4423863 C0.00442151945,58.2208314 0.0978552928,54.3627992 0.00442151945,50.5164936 C-0.0890122539,47.6083113 1.30081512,46.7874534 3.94031922,46.9047188 C7.01195452,47.0454373 10.095269,46.9047188 13.937733,46.9047188 C13.937733,41.4870567 13.5523187,36.4446438 14.0311667,31.4843168 C14.6800693,25.3204399 15.6901257,19.2003066 17.0560852,13.1557324 C17.755023,10.7295341 18.9041637,8.45774857 20.4430594,6.45987725 C26.3527456,-2.12395112 36.2333671,-2.18258383 42.0262611,6.45987725 C45.9445205,12.5435966 48.010454,19.6426877 47.9709849,26.8875125 C48.0994563,33.2902042 47.9709849,39.7046224 47.9709849,46.9164454 C51.7083358,46.9164454 54.9785179,47.0688904 58.1669454,46.9164454 C60.9933171,46.7405473 62.0561262,47.9014749 61.9977301,50.6220325 C61.9159756,54.3158931 61.9977301,58.0097536 61.9977301,61.5980753 C56.6953635,63.4274158 56.8355141,63.4508689 56.1581193,68.8919841 C54.6631789,80.8765095 52.981371,92.8493084 51.4864306,104.833834 C51.2178085,106.968064 50.3185085,108 48.134494,108 L11.6252471,107.96482 Z M8.22659357,62.8997214 C10.5040418,77.2061021 11.461738,91.2427722 14.4632979,105.115271 C25.0797104,105.115271 34.9720112,105.115271 44.8292743,105.115271 C47.5622121,105.115271 48.5082291,103.942617 48.8352473,101.339324 C49.8163019,93.4356355 51.0542994,85.5788527 52.1054294,77.6868903 C52.7361073,72.9024613 53.2032762,68.0945793 53.7872373,62.8879949 L8.22659357,62.8997214 Z M3.44979191,58.9596035 C11.9055484,60.2143434 55.0135556,59.8508206 58.8443403,58.6195338 L58.8443403,50.6806652 C51.0659786,49.2969333 7.45576494,49.6956357 3.44979191,51.1614534 L3.44979191,58.9596035 Z M45.4949899,28.7637592 L44.0000495,27.9546278 C41.1970363,30.7924508 38.5575322,33.8178985 35.5676515,36.4329173 C32.063885,39.458365 32.2040357,42.8356089 33.5588254,47.4793194 C37.782373,44.7955952 41.4021182,41.2570367 44.1869171,37.0896036 C45.6701782,35.0140058 45.1562925,31.5781291 45.4949899,28.7637592 Z M17.73348,29.3618128 C16.1801435,36.2570192 20.8985491,44.2193408 28.7703445,46.670188 C30.0317004,44.0786223 30.428794,41.1118074 28.53676,39.0831157 C25.1965027,35.4478878 21.2022088,32.3755339 17.7801969,29.3618128 L17.73348,29.3618128 Z M29.2959095,33.3840165 C31.7952629,24.2255876 24.7293338,20.5669067 19.6722308,15.0319791 C17.3363865,21.9623651 17.1495189,22.1617163 18.9481191,23.9441506 C22.2416596,27.1806761 25.7687845,30.1474911 29.3426263,33.37229 L29.2959095,33.3840165 Z M42.1430533,15.3016895 C30.7674914,27.028231 32.1339603,24.3076734 33.2902033,33.2784776 C33.4770708,33.2784776 33.7690514,33.4074696 33.8508059,33.2784776 C36.1866502,30.9331693 38.3823439,28.5292283 40.6714714,26.160467 C45.1095756,21.6926546 45.1212548,21.7043812 42.2364871,15.289963 L42.1430533,15.3016895 Z M29.2141549,3.57514805 C25.6355507,4.80940031 22.7399888,7.49960465 21.2372465,10.9863223 L29.2141549,19.1949013 L29.2141549,3.57514805 Z M34.1661449,3.44615609 L32.9982227,4.04420971 L32.9982227,18.5851212 L41.2904701,10.9745957 L34.1661449,3.44615609 Z M40.5079623,46.1542202 C45.4833107,46.7874534 45.4833107,46.7874534 44.0117288,42.2492819 L40.5079623,46.1542202 Z M21.9146414,46.517743 L17.4882164,42.3430942 C16.7057085,46.5998288 18.2123281,47.2799682 22.0080751,46.5411961 L21.9146414,46.517743 Z" id="Shape"></path>
        </g>
        <g id="Icons/Echeveria" transform="translate(116.000000, 52.000000)" fill="#FFFFFF" fill-rule="nonzero">
            <path d="M13.212588,12.5856223 C15.0509643,8.38651597 12.2400277,3.95347615 15.7981753,0 L24.1005196,12.8663425 L31.5607691,4.2575897 L40.8831157,14.0827967 L50.1342994,1.38020765 C53.7517495,4.09383625 51.1424413,7.82507557 52.7673287,11.5095282 C55.3647764,9.33394664 57.7368748,7.20515179 60.2868806,5.29859377 C61.3899063,4.46812985 63.3468875,3.28676567 64.058517,3.70784597 C66.1578241,4.87751347 64.1889824,6.38638454 63.5010739,7.56774872 C60.1445547,13.2757261 56.6694305,18.9135235 53.2654693,24.5864108 C52.7910496,25.3817847 52.4352349,26.2590354 51.6524424,27.8614798 L64.6989836,27.8614798 L64.6989836,43.2426074 C60.7850212,43.2426074 59.5040881,45.418189 59.0178079,49.6055986 C57.4878045,62.6941779 55.2224505,75.7008805 53.1943064,89 L11.6470031,89 C10.4609539,81.2100145 9.16816027,73.4083322 8.00583206,65.60665 C7.09257418,59.4658956 6.09629286,53.3251413 5.56257072,47.1376002 C5.24233744,43.3829675 2.21791199,44.0964647 0,43.3712709 L0,28.1655934 L13.3786349,28.1655934 C11.2911883,24.4811408 9.73746389,21.6505454 8.08885551,18.8082534 C5.71675712,14.7845972 3.19047233,10.8428177 0.865815912,6.78407149 C0.513129699,5.81115198 0.324810674,4.78772745 0.308372791,3.75463267 C1.49442198,4.01195952 2.91768102,3.9300828 3.77163644,4.59679327 C6.96210877,7.17006177 9.99839471,9.87199369 13.212588,12.5856223 Z M7.99397157,44.1666448 L14.1377064,85.7951111 L50.6680216,85.7951111 L56.7168725,44.1666448 L7.99397157,44.1666448 Z M2.82279708,40.5289788 C12.3111906,41.6986463 57.5945489,41.2658694 62.1964198,39.9675384 C62.1964198,38.1896438 62.1964198,36.2713891 62.1964198,34.3531344 C62.1025807,33.3398113 61.9521191,32.332366 61.7457211,31.3353923 L2.83465757,31.3353923 L2.82279708,40.5289788 Z M32.5451899,26.4929689 L39.1989259,16.843212 L31.8098394,8.85438297 L26.0575008,16.4806151 L32.5451899,26.4929689 Z M40.3375331,26.9725325 L40.8712552,28.5281903 C43.2433536,28.0018399 46.5405704,28.2474701 47.809643,26.7853857 C50.7391845,23.4167433 52.6843052,19.217637 55.0326826,15.3577343 L54.1431457,14.7261138 L40.3375331,26.9725325 Z M10.6863032,14.8196872 L9.67816143,15.509791 C11.3860723,18.2585097 13.0702621,21.018925 14.8018939,23.7676436 C17.8619009,28.6217637 17.8619009,28.6217637 24.6935442,27.3702195 L10.6863032,14.8196872 Z M17.3993417,8.64384282 C14.8493359,17.8374294 22.1435385,19.1006703 25.1323824,23.2763832 L26.1642452,22.6096728 L17.3993417,8.64384282 Z M40.2307887,21.1008017 L41.4168379,22.0014457 C43.2552141,17.7672493 50.9052314,17.2642923 48.628017,9.13510317 L40.2307887,21.1008017 Z" id="Shape"></path>
        </g>
        <g id="Icons/Lithops-2" transform="translate(305.000000, 50.000000)" fill="#FFFFFF" fill-rule="nonzero">
            <path d="M12.0558791,91 L5.51328722,46.765033 C0.0118310885,44.7174447 0,44.7174447 0,39.1630674 C0,36.6212337 0,34.0676322 0.118310885,31.5257985 C0.236310941,31.0760514 0.42390579,30.6472901 0.674372042,30.2548817 L5.59610484,29.4782103 C0.295777212,18.4753653 4.68511103,9.7083926 17.9714234,11.3794129 C18.054241,7.76671408 13.8187113,4.95422216 15.2029487,1.21207811 L16.6463415,0.694297168 L22.06498,10.6851157 C24.6204951,6.40165524 27.152348,2.68304668 32.630142,2.75365317 C38.1079359,2.82425967 41.3141609,5.73089357 43.467419,10.8733997 C46.4488533,7.74317859 46.6263196,2.94193715 50.4004368,0 C52.1987623,4.81300918 47.9395704,7.39014613 48.0342191,10.9910772 C62.9177284,10.6027415 64.7042228,20.1110824 59.9836185,29.5488168 L65,30.2784172 L65,45.1646192 C60.1492537,44.9292642 59.7351656,48.1771628 59.2855843,52.2252683 C57.9841645,63.8635717 56.1621769,75.4430363 54.4585002,87.0342687 C54.1745541,88.9288762 53.760466,90.9646968 51.0038224,90.952929 C38.1907535,90.9764645 25.413178,91 12.0558791,91 Z M57.0140153,46.1295746 L8.5065526,46.1295746 L14.5640699,87.5285142 L51.1457954,87.5285142 L57.0140153,46.1295746 Z M3.32453586,42.7286952 C23.1771023,42.7286952 42.6865672,42.7993017 62.1723699,42.7286952 L62.1723699,33.1497478 L3.33636695,33.1497478 L3.32453586,42.7286952 Z M39.2437204,28.7250744 L40.7107754,30.1489719 C48.6967601,28.6662356 50.1756462,20.1699211 56.174008,16.0276736 C51.2167819,13.7447304 48.6494357,14.0389241 46.1885693,17.4398034 C43.6093921,20.9936635 41.5507827,24.9476271 39.2555515,28.7368421 L39.2437204,28.7250744 Z M25.673462,29.9018492 C24.4903531,24.5122204 21.1066618,18.5930428 17.9950855,16.0512091 C14.8835093,13.5093754 13.1680015,13.5329109 9.5358573,16.4983836 C16.7528213,24.8181818 21.2841281,28.6662356 25.673462,29.8547782 L25.673462,29.9018492 Z M30.4058973,28.8662873 L31.5890062,28.5603259 C31.5890062,24.8887883 31.7428103,21.2172507 31.5890062,17.5574809 C31.435202,13.8977111 32.5118311,9.99081857 30.7253367,6.27221001 C27.4599563,7.79024958 25.3303604,10.1791025 25.6379687,13.1916462 C26.0993811,18.6165783 27.28249,24.0768137 30.3704041,28.8192163 L30.4058973,28.8662873 Z M34.913542,6.15453252 L34.913542,28.6662356 C37.8590555,24.3370379 39.6577734,19.3381151 40.1428831,14.1330661 C40.4386604,10.4262253 38.924281,7.77848183 34.8780488,6.11922928 L34.913542,6.15453252 Z M58.575719,17.6045519 L49.1108482,29.5135135 C56.6354205,29.2193198 59.522206,25.7596017 58.5165635,17.5692487 L58.575719,17.6045519 Z M17.4508555,29.3723005 L6.73188933,19.0755205 C6.62540954,26.2067762 10.3167091,29.7371007 17.3917,29.348765 L17.4508555,29.3723005 Z" id="Shape"></path>
        </g>
        <g id="Icons/Aloe" transform="translate(401.000000, 29.000000)" fill="#FFFFFF" fill-rule="nonzero">
            <path d="M76.3218828,67.8930257 L69.8918341,112 L29.0051111,112 C28.4459765,108.57011 27.8402472,104.952281 27.2927612,101.428422 C25.8949245,91.7847929 24.4854392,82.1294179 23.1924403,72.474043 C22.5750624,67.8695333 22.7031974,67.8460409 17.6127422,66.6009439 L17.6127422,51.4131096 L33.5830263,51.4131096 L33.9091882,50.0975354 C23.7632236,41.5345569 11.4389635,36.4954379 0,29.5886733 C6.58148104,27.1807027 13.1862594,27.7797588 19.4648758,29.6708967 C25.7434922,31.5620346 31.9056223,34.5808076 38.5453465,37.2824331 L32.4531083,0.775249082 C35.1672412,-0.246670163 35.6797813,1.303828 36.2855105,2.74861038 C39.4539403,10.2818388 42.626253,17.8150673 45.8024486,25.3482958 C46.4780697,26.9340325 47.2468798,28.4962769 48.5398788,31.3036182 C50.9394984,25.4305191 52.7566861,20.4383849 54.9349816,15.645936 C57.1132771,10.8534872 57.986925,5.35626639 62.5065969,0 C63.7413527,7.52931306 61.4116249,13.390666 60.794247,19.3342423 C60.1768691,25.2778186 59.1750862,31.2566335 58.3363842,37.2471945 C64.859622,34.545569 70.8819684,31.5620346 77.2071794,29.5886733 C83.5323903,27.615312 90.0206823,27.4038804 98,28.8369166 C96.6243479,29.9706361 95.1895136,31.0293078 93.7016522,32.0083901 C85.0700107,36.800839 76.380126,41.4875721 67.7601331,46.3035134 C65.7428271,47.629001 63.7985151,49.0641572 61.9358136,50.6026219 C69.0764293,52.2235973 75.2735053,50.6026219 81.7384999,51.8594651 C81.7384999,56.0880965 81.8549863,60.1640273 81.7384999,64.2164657 C81.5288244,66.6126901 81.3307976,66.6126901 76.3218828,67.8930257 Z M31.3581362,109.004719 L67.3407821,109.004719 L73.2932367,67.5406397 L25.5338167,67.5406397 L31.3581362,109.004719 Z M78.2905028,54.6785527 L20.4666587,54.6785527 L20.4666587,63.3355008 C27.4558421,64.5101206 73.9688577,64.2517042 78.2905028,62.9713686 L78.2905028,54.6785527 Z M57.8471413,20.027268 L56.8337097,19.7101206 C56.1580887,21.2253802 55.4591703,22.7406397 54.8301438,24.2793917 C53.4206585,27.6857892 52.1160109,31.1509177 50.6133365,34.5220766 C50.0334598,35.4435285 49.3275884,36.2778966 48.5165815,37.0005244 C47.7230922,36.312312 47.0221298,35.5225544 46.4314751,34.6512847 C45.3830976,32.5722077 44.5560442,30.3874148 43.6474504,28.2261143 C42.3272713,25.0937948 41.014858,21.9614753 39.7102104,18.8291557 L38.5453465,19.1932879 C39.5471294,25.066387 40.8750743,30.8572627 41.4691549,36.742108 C42.0049923,41.898689 44.8938547,44.9644468 48.7961488,48.0536969 C50.8463093,45.5517567 53.7002258,43.5783954 54.3176037,41.005978 C55.9833591,34.1814368 56.7405206,27.0867331 57.8471413,20.0742528 L57.8471413,20.027268 Z M45.7791513,50.8257997 C38.4987519,39.643419 21.8877927,30.6810697 10.8332343,31.9026744 C11.9980982,32.6426848 12.7086652,33.2065024 13.5007726,33.6176193 C22.4702247,38.222129 31.4396767,42.8266387 38.7783193,50.0622968 C40.6537501,51.8829575 42.8786402,51.5070792 45.7675027,50.8727845 L45.7791513,50.8257997 Z M85.6757399,32.1141059 L85.1864971,31.0334557 C71.4527517,33.006817 59.955545,38.9386471 50.8113634,50.5321447 C56.3677642,51.4718406 56.2629264,51.3308862 58.9654107,49.2048243 C62.7257107,46.1601281 66.6369249,43.3099621 70.6839415,40.6653382 C75.541424,37.6348191 80.6551765,34.9919245 85.6640913,32.1610907 L85.6757399,32.1141059 Z" id="Shape"></path>
        </g>
        <g id="Icons/Jade" transform="translate(212.000000, 4.000000)" fill="#FFFFFF" fill-rule="nonzero">
            <path d="M11.594491,137 L5.23651001,92.4108746 L0.00674747334,90.8648371 C0.00674747334,87.0465931 0.124270227,83.368898 0.00674747334,79.7029153 C-0.11077528,76.7865265 1.31125004,75.9783705 3.93200744,76.0135077 C10.5955476,76.0837822 17.2473354,76.0135077 23.9108756,76.0135077 L30.0103065,76.0135077 L30.0103065,62.9658887 C24.6042598,64.1371292 19.5155246,65.3083697 14.4032848,66.3273489 C12.503397,66.7680713 10.5600587,66.9959237 8.60941304,67.0066684 C5.14412424,66.8404482 2.40339064,64.0218938 2.34545027,60.5648457 C2.26621361,58.8602 2.95225863,57.2088242 4.2173937,56.0588992 C5.48252877,54.9089741 7.19552132,54.3797817 8.89146765,54.614944 C14.8851281,55.3294007 20.7847703,56.7583141 26.7314216,57.8944174 C27.6598514,58.0701034 28.5765289,58.2809267 29.9632974,58.5854493 L29.9632974,47.0838677 C25.4974327,48.1028469 21.3606318,49.0984013 17.2003263,49.9651193 C14.544379,50.6087027 11.8402537,51.0356645 9.11476088,51.2417714 C6.78587547,51.4144696 4.5528093,50.2865381 3.31559926,48.3125895 C2.07838923,46.3386408 2.04088789,43.8439184 3.21821014,41.8339197 C4.39553239,39.8239209 6.59369328,38.6298292 8.92672447,38.732923 C13.9566983,39.2365564 18.9161585,40.4077969 23.887371,41.3447893 C25.7677351,41.6961614 27.6245946,42.1997948 29.9750496,42.7385654 L29.9750496,31.7406173 C25.0155894,32.8415833 20.4909634,33.8956998 15.9428329,34.8209797 C13.8474137,35.2795241 11.7163276,35.5577414 9.57309962,35.6525605 C5.34228049,35.7696845 2.5217344,33.3100795 2.36895482,29.6558092 C2.39866824,27.883747 3.16362072,26.2031204 4.4819034,25.0135895 C5.80018608,23.8240585 7.55400755,23.2319103 9.32630183,23.3779602 C13.0063662,23.7547145 16.6601715,24.3531416 20.2676702,25.1699581 C23.0647117,25.6970163 25.8264964,26.3411986 29.2934177,27.1259297 C28.1887038,21.4337009 27.2132649,16.5847653 26.3083397,11.6421305 C25.9288699,9.93372235 25.7241175,8.19138314 25.6972214,6.44182269 C25.6434783,4.77603968 26.2603248,3.15800056 27.4103908,1.94803816 C28.5604569,0.738075756 30.1482442,0.0366620777 31.8201569,0 C35.5338759,0 38.0958719,2.28391895 37.6962946,6.39497307 C37.1909467,12.1809011 35.9099487,17.8848423 34.9580144,23.6356331 C34.8169871,24.5140634 34.6171984,25.3807814 34.3116393,26.9268188 C39.2475949,25.86099 43.5489277,24.8654356 47.8855173,24.0221424 C49.9804037,23.5592138 52.1213237,23.3352388 54.2670028,23.3545354 C58.0864923,23.5067966 60.248911,26.1420877 60.0256177,29.9603317 C59.8258291,33.4740532 57.604649,35.957083 53.9614437,35.5939985 C48.3556083,35.031803 42.8202866,33.7551509 37.2497081,32.7595965 C36.1332419,32.5604856 35.0402803,32.2793879 33.5124845,31.9397281 L33.5124845,42.1880824 C36.5798284,41.6493118 39.5178972,41.1456784 42.4442138,40.6069078 C45.856135,39.7928819 49.3081,39.155653 52.7862161,38.6977858 C57.4871263,38.3229888 60.0491223,40.7708814 60.03737,45.0224844 C60.0256177,49.2740874 57.1815671,51.7688296 52.5864274,51.1012225 C46.4399874,50.1993674 40.3758133,48.7587416 33.7122732,47.4938018 L33.7122732,58.3277764 C38.0958719,57.3205095 42.2209206,56.2663931 46.381226,55.4699496 C49.0583024,54.9017424 51.7884484,54.6190532 54.5255529,54.6266564 C57.9337127,54.7086432 59.8963427,56.9691374 60.0256177,60.2486108 C60.1783973,63.9145935 58.3567946,66.561597 54.9486348,66.9129691 C52.8093713,67.0590971 50.6601414,66.8973669 48.5671493,66.4327605 C43.6429459,65.4957681 38.7657516,64.3596649 33.4537231,63.2118492 L33.4537231,75.9080961 L62,75.9080961 L62,90.8531247 C57.0522921,92.4460118 57.1698148,92.4577242 56.5234397,97.5174831 C54.9838916,109.686672 53.3033162,121.832436 51.7285113,134.001624 C51.5052181,135.758485 50.8940998,136.988288 48.896213,136.988288 L11.594491,137 Z M54.3375165,92.0360776 L8.3391107,92.0360776 C10.5250339,106.090963 11.6532524,119.935026 14.4150371,133.462854 L48.6494152,133.462854 L54.3375165,92.0360776 Z M3.68520966,88.5223562 L59.3792426,88.5223562 C59.4732608,86.4024109 59.6142881,84.668975 59.6142881,82.9472514 C59.6142881,81.7760109 59.4027471,80.6984697 59.2499676,79.2695563 L3.68520966,79.2695563 L3.68520966,88.5223562 Z M40.1995292,44.2377533 L40.1995292,45.5378302 C44.4656052,46.7793451 48.7199288,48.0559973 53.291564,48.1145593 C55.642019,48.1145593 57.2050717,46.9433188 57.005283,44.7530991 C56.9569413,43.7593756 56.4753409,42.8363095 55.686862,42.2261294 C54.8983831,41.6159493 53.8817479,41.3795758 52.9037389,41.5790374 C48.6259106,42.2817817 44.4303483,43.2773361 40.1995292,44.1791912 L40.1995292,44.2377533 Z M40.1995292,60.0143627 L40.3405565,61.5721125 C44.2658165,62.4388305 48.1675719,63.3641105 52.0928319,64.160554 C53.1671549,64.4823924 54.32895,64.3203315 55.2733253,63.716901 C56.2177006,63.1134705 56.8503634,62.128921 57.005283,61.0216295 C57.5106308,59.1007951 55.4892395,57.3087971 52.7157025,57.6484569 C48.5201402,58.1872275 44.3833392,59.1710695 40.2230338,59.9558006 L40.1995292,60.0143627 Z M22.6886389,45.2684449 L22.4183366,44.0972044 C18.2697834,43.218774 14.1917438,42.234932 9.97267698,41.5087629 C8.99765115,41.2310343 7.94827395,41.4290458 7.14260941,42.0427806 C6.33694487,42.6565155 5.8698444,43.6137182 5.88288515,44.6242626 C5.68309647,47.0487304 7.19913999,48.1379841 9.51433824,48.0442849 C14.0537709,47.9388813 18.532044,46.9771134 22.7121435,45.2098829 L22.6886389,45.2684449 Z M22.7474003,30.2531418 L22.6181253,28.8945029 C18.6928653,28.0160725 14.7911099,26.9970933 10.8658499,26.3294862 C7.83376286,25.8141404 5.68309647,27.3250406 5.87113288,29.6440968 C6.09442611,32.3730871 8.09231292,33.1578182 10.442768,32.7830213 C14.5678166,32.0100026 18.6576085,31.0495854 22.7709048,30.1945798 L22.7474003,30.2531418 Z M40.1525201,28.8476532 L40.1525201,30.3117039 C44.3480824,31.154997 48.5201402,32.1856886 52.7509593,32.7478841 C55.3364599,33.0875438 57.4518694,31.213559 57.0170352,29.3512867 C56.535192,27.3016158 55.0544053,25.8375652 52.8214729,26.2474994 C48.5671493,26.9151064 44.3833392,27.9106609 40.1642724,28.7890912 L40.1525201,28.8476532 Z M31.185534,20.566983 L32.5370457,20.4849962 C33.3597049,16.3505172 34.2646301,12.2160383 34.9815189,8.05813456 C35.3928486,5.71565359 34.4526666,3.78310678 31.9141751,3.30289818 C30.0455633,2.95152603 28.2239606,5.31743182 28.623538,7.81217406 C29.3874359,12.0403522 30.3276179,16.2685304 31.2090386,20.508421 L31.185534,20.566983 Z M22.6651344,61.5604001 L22.7238957,60.1549115 C18.3167925,59.3467556 13.9331938,58.3980508 9.50258596,57.8124305 C8.56256247,57.5809564 7.56845805,57.8259349 6.84500665,58.4673413 C6.12155526,59.1087478 5.76166036,60.0642147 5.88288515,61.0216295 C5.88157303,62.0202527 6.34679517,62.9625734 7.14145102,63.5708905 C7.93610686,64.1792075 8.96962191,64.3841852 9.93742015,64.1254168 C14.2270007,63.3641105 18.4460675,62.368556 22.6768866,61.4432761 L22.6651344,61.5604001 Z" id="Shape"></path>
        </g>
    </g>
</svg>