<?xml version="1.0" encoding="UTF-8"?>
<svg width="319px" height="540px" viewBox="0 0 319 540" version="1.1" xmlns="http://www.w3.org/2000/svg" xmlns:xlink="http://www.w3.org/1999/xlink">
    <!-- Generator: Sketch 51.2 (57519) - http://www.bohemiancoding.com/sketch -->
    <title>Artboard</title>
    <desc>Created with Sketch.</desc>
    <defs></defs>
    <g id="Artboard" stroke="none" stroke-width="1" fill="none" fill-rule="evenodd" opacity="0.046607">
        <g id="Group-16" transform="translate(-5.000000, 278.000000)" fill="#FFFFFF" fill-rule="nonzero">
            <path d="M9.17264062,9.17670688 L9.17264062,0.258168224 L9.87112364,0 C12.3764264,2.28830926 13.3346758,5.76184537 15.6956638,8.59582838 L21.5144315,2.31764656 L27.3736072,8.83052676 L33.4117331,0.275770603 C34.7336555,2.91612744 33.7984964,5.3217859 34.4046181,7.96214274 C36.3961606,6.2371096 38.249161,4.64702804 40.0848436,3.03347664 C41.0546382,2.18269499 41.0373204,2.16509261 43,2.10055055 L32.4708014,20.2896755 L36.9387837,20.5947834 L36.9387837,28.0464571 C34.5200698,27.9349754 34.4277084,29.806695 34.1852598,31.6901495 C33.4348235,37.5576092 32.5920258,43.4720085 31.8127265,49.362938 C31.679957,50.3780085 31.2701034,51.0058267 30.184857,50.9999592 C24.027431,50.9647545 17.8700049,50.9256381 11.7125789,50.88261 C11.5451738,50.88261 11.3835414,50.6948513 11.0833669,50.5129601 L7.92576185,28.7622872 C5.28191704,27.9995174 5.27614445,27.9995174 5.25882669,25.4706423 C5.25882669,23.921633 5.25882669,22.3784911 5.25882669,20.6475905 L9.87689623,20.283808 C6.52879581,14.0525658 2.74197879,8.40806967 0,2.09468309 C3.50973285,3.5908853 5.86494832,6.46007307 9.17264062,9.17670688 Z M9.45549738,28.5393237 L12.3995167,49.2338539 L30.2541281,49.2338539 L33.1404215,28.5393237 L9.45549738,28.5393237 Z M6.973285,26.6500017 L35.5764532,26.6500017 L35.5764532,22.1437927 L6.973285,22.1437927 L6.973285,26.6500017 Z M21.1507585,17.9954987 L26.4499933,10.2445845 L21.4278427,4.63529312 L16.5673245,10.3501988 L21.1507585,17.9954987 Z M37.8335347,7.8799983 C33.2154652,10.8548003 24.6835817,18.9518947 24.0601423,20.4598318 C25.7284199,20.4598318 27.3562894,20.424627 28.9841589,20.4598318 C29.9628361,20.5481173 30.8892931,19.9972325 31.2931937,19.0868462 C33.4232783,15.3258046 35.6457243,11.6117026 37.8393073,7.87413084 L37.8335347,7.8799983 Z M18.3741442,20.424627 L18.5819573,19.8378811 L5.02792321,7.69223959 C6.74286806,11.5273903 8.71800428,15.2367407 10.9390522,18.7934732 C11.3489059,19.4740986 12.0935696,20.2955429 12.7920526,20.3776873 C14.6502943,20.5029557 16.5141178,20.5186285 18.3741442,20.424627 Z M11.2334542,4.61182328 L10.6561955,4.65876296 C10.6561955,6.41900085 10.6100148,8.17923874 10.6561955,9.89840442 C10.6953713,10.281632 10.8721125,10.6367461 11.1526379,10.8958726 C13.4616727,13.0022906 15.7707075,15.0735038 18.1086052,17.1505845 L18.5530944,16.7809346 L11.2334542,4.61182328 Z M32.0147671,5.00494308 L23.8638743,16.9041512 C26.3807222,15.2847324 28.3953551,13.1900493 30.6928447,11.488486 C32.9903343,9.78692269 32.9499262,7.56902294 32.04363,5.00494308 L32.0147671,5.00494308 Z" id="Shape"></path>
        </g>
        <g id="Group-18" transform="translate(128.000000, 277.000000)" fill="#FFFFFF" fill-rule="nonzero">
            <path d="M16.0466302,0 C18.3048528,2.53194397 19.9909327,5.52345464 20.9894353,8.7697232 L28.1238616,3.40849908 C29.8724954,6.21481051 29.7675774,7.24963785 26.3752277,21.4039711 L32,21.6904487 L32,29.1096345 C29.7442623,29.1096345 29.4469945,30.7174171 29.2138434,32.6993746 C28.5202186,38.5458567 27.6342441,44.4215712 26.8298725,50.2797463 C26.6783242,51.4022709 26.1479053,52.033691 24.9296903,51.9986121 C18.9202186,51.9576867 12.904918,51.9635332 6.89544627,51.9343008 C6.56477717,51.8631321 6.24652782,51.7429335 5.95118397,51.5776654 L2.75701275,29.8638307 C0.0174863388,29.0277838 0.0174863388,29.0277838 0,26.3559415 C0,24.9118604 0,23.4736258 0,21.766453 L5.66557377,21.4215105 C4.89617486,18.4105722 4.06265938,15.5750284 3.4564663,12.6517873 C2.85027322,9.72854627 2.41311475,6.8053052 3.33989071,3.67743726 C6.47577413,4.56025606 8.4284153,6.69422204 10.6550091,8.88080636 C12.2462659,5.81724972 13.2021858,2.47890842 16.0466302,0 Z M28.1471767,29.5831996 L4.24918033,29.5831996 L7.25100182,50.2563604 L25.2444444,50.2563604 L28.1471767,29.5831996 Z M1.79526412,27.7532507 L30.6535519,27.7532507 L30.6535519,23.2105341 L1.8010929,23.2105341 L1.79526412,27.7532507 Z M16.0699454,20.0183548 C16.926776,17.825924 17.4513661,15.6042608 18.5879781,13.7626189 C20.0684882,11.3538683 19.835337,9.20236288 18.5879781,6.92808133 C17.8127505,5.48984672 16.9850638,4.08669101 16.0466302,2.43213657 C14.2411122,4.56966965 12.9524594,7.09677733 12.2812386,9.8162435 C12.1528036,10.4671536 12.2155759,11.1414672 12.4619308,11.7572756 C13.5810565,14.4115785 14.7701275,17.0366489 16.0699454,20.0183548 Z M14.4087432,21.1876513 C13.0156648,15.6744186 10.9114754,10.8218384 6.33588342,7.3957999 C7.99708561,11.8332798 9.86812386,16.1655231 11.7216758,20.4743804 C12.2462659,21.6319839 13.0331512,21.7313741 14.4145719,21.1876513 L14.4087432,21.1876513 Z M17.6378871,21.2870414 C18.9202186,21.6962952 19.8411658,21.7079882 20.3540984,20.3632973 C20.8029144,19.1940008 21.2867031,18.0247044 21.7879781,16.855408 C23.1577413,13.7216936 24.5449909,10.5938256 25.9264117,7.46595768 C21.1817851,10.8978427 18.8619308,15.6802651 17.6437158,21.2753485 L17.6378871,21.2870414 Z M27.1562842,9.40698975 C25.0870674,13.2364355 23.1111111,17.0775743 22.0735883,21.4916683 C23.0469945,21.3864316 24.2127505,21.2344231 24.5041894,20.6497749 C26.3109733,17.1789232 27.2246113,13.3102947 27.1621129,9.39529679 L27.1562842,9.40698975 Z M10.2644809,21.1876513 C8.64990893,16.9664912 7.01785064,12.9558044 4.74462659,9.24328825 C4.66885246,13.0201157 5.75883424,16.4870796 7.07613843,19.9131181 C7.58324226,21.3221203 8.44007286,21.936001 10.2644809,21.1876513 Z" id="Shape"></path>
        </g>
        <g id="Group-13" transform="translate(128.000000, 186.000000)" fill="#FFFFFF" fill-rule="nonzero">
            <path d="M7.34076375,0.730130812 C9.04001462,8.17390348 9.40252147,15.7067165 11.158414,23.0733209 C13.0049333,15.6889084 13.4693952,8.10267121 14.964736,0.516433989 C16.3751142,0.997251841 16.3241367,2.01231175 16.4374201,2.95613939 C17.1926427,9.22062218 17.9478653,15.4831263 18.7030879,21.7436518 C18.8159721,22.3019939 18.9597065,22.8529932 19.1335648,23.3938661 C20.8328156,21.5299549 20.175772,19.3989227 20.6685547,17.6299879 C21.1896583,15.7601407 21.1726658,13.7300209 21.4388818,11.7770694 C21.6881052,9.92503023 21.948657,8.06705507 22.2998356,6.23282401 C22.6510141,4.39859294 22.2998356,2.32692096 23.9424447,0 C25.6416956,7.96614268 25.7719715,15.5226998 27.2163347,22.9842805 L31,23.364186 L31,30.891063 L28.6380413,31.3718808 L25.4661063,54 L5.64151288,54 C5.27334186,51.7502473 4.85985748,49.4589425 4.50867897,47.1498296 C3.8818442,42.7650874 3.28144223,38.3744091 2.70747305,33.9777949 C2.37328705,31.419369 2.41293623,31.413433 0,30.7485984 L0,23.376058 L3.39850174,22.9842805 C3.91394117,19.1792899 4.27644802,15.3564912 4.99013338,11.6108607 C5.72647542,7.97801473 5.45459529,4.10772782 7.34076375,0.730130812 Z M24.2709666,52.3438496 L27.1030513,31.4906013 C23.2967294,30.8554469 6.01534807,31.0157195 3.87995615,31.7042981 L6.76868262,52.3438496 L24.2709666,52.3438496 Z M29.5782934,24.8422557 L1.51233327,24.8422557 L1.51233327,29.5495218 L29.5839576,29.5495218 L29.5782934,24.8422557 Z M7.48803216,9.40859624 L6.79700347,9.40859624 L4.93349169,22.9783445 L9.04567879,22.9783445 L7.48803216,9.40859624 Z M23.9820939,9.3729801 C22.8096108,11.0113224 21.4162251,20.6514235 21.9429929,23.0258327 L25.522748,23.0258327 L23.9820939,9.3729801 Z M15.6557647,9.43827635 L15.0100493,9.43827635 L13.1861867,22.9427284 L17.3266947,22.9427284 L15.6557647,9.43827635 Z" id="Shape"></path>
        </g>
        <g id="Group-12" transform="translate(65.000000, 191.000000)" fill="#FFFFFF" fill-rule="nonzero">
            <path d="M2.48166387,26.3597893 C0.391225649,26.5816927 -0.152628199,25.6181647 0.0343215614,23.7728627 C0.129784091,22.0869434 0.141129342,20.3970809 0.0683124269,18.7099612 L3.66567902,18.2661544 C4.12455571,15.0310362 2.12475979,11.9769446 2.84989825,8.05859752 L5.72212638,11.5623356 C6.4415997,7.7899776 5.5068509,4.16944828 6.13001677,0.613154159 C7.50664682,0.694908047 7.65394057,1.78106684 8.04483552,2.60444529 C10.0899526,6.74469575 12.0954137,10.9024649 14.1348656,15.0485549 C14.542756,15.8777729 15.0242932,16.6719536 15.6984454,17.9041014 L24.5700613,0 C25.9750171,2.09640327 25.2782043,3.94170531 25.3745118,5.65853695 C25.4821495,7.49215987 25.3745118,9.33746191 25.3745118,11.5798543 L28.5299971,8.03523927 C29.0228647,11.9010303 27.3969683,14.8266515 27.4422894,18.2194379 L31,18.6574051 L31,25.8459077 C28.7339423,26.6050509 28.6149743,26.7452005 28.2920611,29.1919775 C27.504606,35.1483322 26.6718298,41.0930078 25.9523565,47.0610416 C25.7710719,48.567649 25.1365757,49.0114558 23.7542805,48.9997767 C18.3780586,48.9472206 12.9905064,48.9297019 7.63127999,48.9997767 C6.07336533,48.9997767 5.54084177,48.4683764 5.33689657,46.868336 C4.50412037,40.1469985 3.49005955,33.4431797 2.48166387,26.3597893 Z M3.98859224,26.429864 L6.93446725,47.2070307 C12.9508504,47.2070307 18.6499855,47.323822 24.3944418,47.1135977 C24.9099699,43.4288332 25.3801769,40.1061216 25.8390536,36.7366935 C26.2979303,33.3672654 26.7454767,29.9452812 27.2100185,26.4240245 L3.98859224,26.429864 Z M1.72253455,24.7130324 L29.5893791,24.7130324 L29.5893791,20.0413817 L1.73386483,20.0413817 L1.72253455,24.7130324 Z M14.1461959,18.5990095 C11.8801382,13.9799148 10.0559617,9.83966436 7.60295427,6.04394814 C7.38665503,6.59958889 7.29561115,7.19861199 7.33669249,7.79581717 C7.3763485,9.64111921 7.09875643,11.5798543 7.56896341,13.2966859 C8.07680521,15.0359041 8.99110178,16.6200155 10.2315812,17.909941 C10.8887379,18.6282073 12.4409875,18.3771061 14.1461959,18.5990095 Z M17.3809932,18.0792884 C19.8509961,18.9435437 21.1993005,18.1318444 22.4456322,16.2923819 C24.6493733,13.0339056 23.3350598,9.483451 24.0545332,6.12570203 L23.3690507,5.93299644 L17.3809932,18.0792884 Z M22.9838209,18.2194379 L25.6747644,18.3537478 L26.4792149,14.2193369 L25.9466913,13.950717 L22.9838209,18.2194379 Z M8.03350523,17.9274597 L4.99698792,13.4835519 C5.15561196,18.3011918 5.37088744,18.5990095 8.02784009,17.9566575 L8.03350523,17.9274597 Z" id="Shape"></path>
        </g>
        <g id="Group-14" transform="translate(193.000000, 191.000000)" fill="#FFFFFF" fill-rule="nonzero">
            <path d="M25.6972112,18.1090634 L30,18.3689979 L30,25.7535006 C29.3853159,26.0134351 28.400683,26.1315872 27.973819,26.698717 C27.546955,27.2658468 27.5128059,28.346938 27.404667,29.2153555 C26.6078543,35.3356314 25.8281161,41.4598456 25.0654525,47.5879983 C24.928856,48.7045351 24.359704,49.0058228 23.329539,48.9999152 C18.0250427,48.9526544 12.7205464,48.9172088 7.39328401,48.9999152 C5.83949915,48.9999152 5.42970973,48.2201118 5.25896414,46.9086241 C4.80364257,43.4113236 4.33693796,39.9140231 3.87023335,36.4167226 C3.43198634,33.1261882 2.98235629,29.8297461 2.5498008,26.5982877 C0.0170745589,25.7535006 0.0170745589,25.7535006 0,22.9532972 C0,21.7717767 0,20.5902563 0,19.4087359 C0.0493060456,19.0898988 0.123541062,18.775758 0.221969266,18.4694271 L4.47922595,18.0618026 C4.47922595,15.9409734 4.44507684,13.926481 4.47922595,11.8706355 C4.54183267,8.62736187 5.36710302,5.67356077 7.69493455,3.34596551 C11.0244735,0.0199854775 14.8833238,-0.919323271 19.1576551,0.947479021 C23.1417188,2.71975968 25.3784861,5.96303328 25.663062,10.4705338 C25.8224246,12.9103735 25.6972112,15.3620284 25.6972112,18.1090634 Z M23.5515083,47.1331129 C24.3312464,40.0735283 25.6004553,33.2856934 26.1696073,26.2851848 L4.01821286,26.2851848 L6.80705748,47.1390206 L23.5515083,47.1331129 Z M28.6738759,19.8636212 L1.75298805,19.8636212 L1.75298805,24.5247194 L28.685259,24.5247194 L28.6738759,19.8636212 Z M16.0614684,15.5865172 L16.4997154,15.7873757 L22.2879909,5.59085434 C20.7000569,3.28688949 18.7990894,2.04629303 16.0614684,1.9694942 L16.0614684,15.5865172 Z M14.3540125,1.957679 C11.3830393,2.13490706 10.0626067,2.92061815 8.00227661,5.68537598 L13.8873079,15.9586962 L14.348321,15.7696529 L14.3540125,1.957679 Z M13.2157086,18.1386014 C11.0643142,14.3045676 9.23164485,10.9136039 6.91519636,7.17409173 C5.52646557,11.208984 5.77689243,14.6235781 6.05577689,18.1386014 L13.2157086,18.1386014 Z M17.0916335,18.0322646 L24.3653956,18.0322646 C24.063745,14.4522576 25.0654525,10.9726799 23.2270916,7.23907535 L17.0916335,18.0322646 Z" id="Shape"></path>
        </g>
        <g id="Group-15" transform="translate(256.000000, 185.000000)" fill="#FFFFFF" fill-rule="nonzero">
            <path d="M22.193053,22.5459539 L28.4837294,13.8577701 C29.41883,17.8271694 27.2595978,20.8832556 27.83766,24.1969429 L31,24.5482172 L31,31.8605767 C28.6084095,31.9015587 28.4270567,33.6169481 28.2003656,35.7187391 C27.571298,41.415237 26.6985375,47.0824619 25.888117,52.761396 C25.7278845,53.5080337 25.5215517,54.2433099 25.2703839,54.9627148 L16.0043876,54.9627148 C13.1707495,54.9627148 10.3371115,54.9158782 7.50347349,54.9978422 C6.0809872,55.0388242 5.52559415,54.5002037 5.34424132,53.0248517 C4.69250457,47.8142833 3.9047532,42.6271332 3.16234004,37.4282739 C2.92998172,35.8007031 2.66361974,34.1848415 2.39725777,32.4635975 L0,32.0010864 L0,24.6067629 L3.59872029,24.1559609 C3.59872029,20.9125285 2.15923218,17.8681514 2.40859232,14.7008284 L3.14533821,14.4139544 L8.99963437,22.5283901 C11.4819013,14.8062107 12.7683729,7.21868634 15.56234,0 C18.333638,7.24210463 19.7447898,14.8237744 22.193053,22.5459539 Z M6.81773309,53.0833974 L24.3012797,53.0833974 C25.2477148,46.139876 26.3925046,39.3368642 27.0555759,32.3640698 L3.9047532,32.3640698 L6.81773309,53.0833974 Z M29.583181,30.6486804 L29.583181,26.0060055 C24.533638,25.4556758 3.51371115,25.6722949 1.40548446,26.3045886 C1.33027892,26.957642 1.28677533,27.614176 1.27513711,28.2717245 C1.27513711,29.0211096 1.41115174,29.7704948 1.49616088,30.654535 L29.583181,30.6486804 Z M20.9349177,24.2086521 L15.8343693,4.88856699 L15.2393053,4.91783984 L10.286106,24.2027975 L20.9349177,24.2086521 Z M26.4718464,19.3552125 L23.2358318,24.1735247 C26.1884826,24.2554887 26.2678245,24.1383972 26.4661792,19.3610671 L26.4718464,19.3552125 Z M8.06453382,24.1442518 L5.07221207,19.8118691 C5.06654479,24.2437795 5.06654479,24.2437795 8.05886654,24.1501064 L8.06453382,24.1442518 Z" id="Shape"></path>
        </g>
        <g id="Group-11" transform="translate(0.000000, 194.000000)" fill="#FFFFFF" fill-rule="nonzero">
            <path d="M2.39027955,24.1251583 L0,23.6369394 L0,16.1231315 L2.44125708,15.6884976 C3.51178513,13.5689131 1.95980267,10.9730175 3.57409099,8.6271852 C5.12607345,10.9253864 3.97058286,13.3248036 4.5596565,15.4205726 C6.64973506,15.9266532 6.82532432,15.879022 6.86497351,14.0690398 C6.93294354,12.0863947 6.86497351,10.0977958 6.89895852,8.11515075 C6.99717589,7.37511352 7.1583055,6.64582062 7.38041294,5.93602736 C9.02302211,7.61502407 8.24703088,9.35951355 8.37730678,10.8837091 C8.50758268,12.4079047 8.40562763,14.0154548 8.40562763,15.5396504 C10.9318473,15.825437 10.9771606,15.8313909 11.0054815,13.7534837 C11.0451306,10.9730175 11.0054815,8.19850519 11.0054815,5.41803902 C10.9918183,4.55345109 11.1866816,3.69930787 11.5718984,2.93526729 C12.8010232,4.83455789 12.2572629,6.96605016 12.3422255,8.98441855 C12.4385164,11.1516342 12.3422255,13.3188498 12.3422255,15.4443881 C14.8627809,15.9445148 14.9194226,15.9445148 14.9477435,13.8904231 C14.9930568,10.2168736 14.9477435,6.54927793 14.9477435,2.8757284 C14.9477435,1.92906005 15.0383702,0.988345579 15.0893477,0 C16.5790243,0.154801115 16.30148,1.11337725 16.3071442,1.78616671 C16.335465,5.75741069 16.3071442,9.72270079 16.3071442,13.6939448 C16.3071442,15.7956676 16.36945,15.7956676 18.8050429,15.5932354 C19.2298557,11.425513 18.5841403,7.13275906 19.1505573,2.94122118 L19.8585785,2.89359007 C20.0577549,3.45466078 20.1946021,4.03803968 20.2663987,4.63212567 C20.3060479,7.71028629 20.2663987,10.782493 20.3003837,13.8606537 C20.3003837,15.718267 20.3683537,15.718267 22.8605883,15.7123131 L23.1098118,6.50760071 L23.7781838,6.40043071 C24.0047506,6.82315683 24.4125708,7.23992906 24.4295633,7.66860907 C24.5031975,9.75247023 24.4295633,11.8363314 24.4805408,13.9201926 C24.5315184,15.7658982 24.5768317,15.7599443 27.0464096,15.6408665 C27.0464096,14.4977198 26.9671113,13.3307575 27.0464096,12.1757031 C27.125708,11.0206486 26.5139777,9.79414745 28.2868628,8.74626298 C28.3491686,10.3299975 28.4341312,11.6279453 28.4511237,12.9139853 C28.4907729,15.5336965 28.4511237,15.5336965 31,16.2600709 L31,23.5357233 C28.7909739,23.5357233 28.4001462,25.00038 28.1679152,27.1080568 C27.5561849,33.0083608 26.6272611,38.8729415 25.8002923,44.7434761 C25.6483284,45.5053391 25.4592742,46.258504 25.2338754,47 L17.6778732,47 C14.4662891,47 11.2603691,47 8.04878494,47 C5.78311712,47 5.6754979,47 5.32431939,44.6839372 C4.56532067,39.7064859 3.908277,34.711173 3.20591997,29.721814 C2.94536817,27.899924 2.67348803,26.0542184 2.39027955,24.1251583 Z M24.2426457,45.0888016 C25.2112187,38.0155815 26.4120227,31.0971624 26.9727754,24.0656195 L3.88562032,24.0656195 L6.80266764,45.0888016 L24.2426457,45.0888016 Z M1.45002741,22.2199139 L29.5216517,22.2199139 L29.5216517,17.4568026 L1.45002741,17.4568026 L1.45002741,22.2199139 Z" id="Shape"></path>
        </g>
        <g id="Group-19" transform="translate(192.000000, 285.000000)" fill="#FFFFFF" fill-rule="nonzero">
            <path d="M2.52368321,21.8963828 C0.0227358848,21.0612783 0.0170519136,21.0612783 0,18.247983 C0,16.7850694 0,15.3221558 0,13.7585559 L2.59189087,13.3498878 C1.04016673,9.26320612 1.26752558,6.78750623 3.27396741,5.14691085 C5.10989011,3.64253819 7.25274725,3.81429727 10.2368321,5.85171536 C10.5267147,3.88537 10.6233422,1.77095646 12.5104206,0.793706503 C13.5073179,0.267333146 14.6099776,-0.00468613777 15.7275483,6.10839835e-05 C18.2796514,0.071133808 19.5073892,1.71765192 20.1496779,5.50227447 C23.7589996,3.65438365 25.464191,3.67807455 27.3626374,5.62072901 C29.0678287,7.39754711 29.1644562,9.6541061 27.6184161,13.3558105 L30,13.7407877 L30,21.0435101 C29.3349754,21.3396465 28.3573323,21.4758692 27.9367185,22.0503737 C27.5161046,22.6248782 27.4820008,23.71466 27.3683213,24.5853009 C26.5100417,30.9996142 25.66313,37.4139276 24.8048503,44 L5.53050398,44 L2.52368321,21.8963828 Z M26.242895,21.6002465 L3.93899204,21.6002465 C5.07578628,28.7075189 5.56460781,35.6844913 6.89465707,42.4778592 L23.4691171,42.4778592 L26.242895,21.6002465 Z M1.66540356,19.7523556 L28.6074271,19.7523556 C28.6756347,18.875792 28.7779462,18.2065239 28.7722622,17.5372557 C28.7722622,16.773224 28.6813187,16.0151149 28.613111,14.972715 C19.5187571,14.972715 10.6403941,14.9371786 1.66540356,14.972715 L1.66540356,19.7523556 Z M11.8965517,6.4736017 C12.23759,7.6581471 12.8059871,9.93247427 13.5619553,12.1238833 C13.8353933,12.7829003 14.3955697,13.2652842 15.0682077,13.4209605 C15.7593004,13.3273372 16.3613709,12.8839729 16.6767715,12.2364151 C17.4218979,10.1270875 18.0091032,7.96078683 18.4331186,5.75695173 C18.8196286,3.61884728 17.0462296,1.42151557 15.193255,1.3859792 C13.3402804,1.35044284 11.9647594,3.03842004 11.9249716,6.4736017 L11.8965517,6.4736017 Z M18.14892,13.5038787 C20.2178856,13.5038787 22.0651762,13.8414741 23.7192118,13.3913468 C24.9298977,13.0655969 26.1405836,11.8928969 26.8965517,10.7675788 C27.8173551,9.39942884 27.0954907,7.26724712 25.7938613,6.3196108 C24.4922319,5.37197448 22.9973475,5.4430472 21.7355059,6.86450168 C20.0718,8.76524013 18.8452708,11.035753 18.14892,13.5038787 Z M12.3967412,13.3498878 C11.0382721,10.9274924 10.1231527,8.96706977 8.93520273,7.25540166 C7.36642668,5.03437904 5.0928382,5.20021539 3.56384994,7.4390062 C2.57483895,8.89007432 2.77946192,10.4951333 4.13224706,11.9521242 C6.3546798,14.3804423 9.08866995,13.4328059 12.3796893,13.3498878 L12.3967412,13.3498878 Z" id="Shape"></path>
        </g>
        <g id="Group-10" transform="translate(-4.000000, 98.000000)" fill="#FFFFFF" fill-rule="nonzero">
            <path d="M0,2.36454379 C4.25915875,-1.37826295 14.0727273,-0.538041031 21.9142469,3.89809568 C25.3169709,1.48052482 29.3723016,0.168403759 33.5364993,0.137661912 C36.7221167,0.0906564896 39.8960651,0.172915978 42.9533243,1.31279747 C43.0058345,2.99324131 41.7864315,2.7053331 40.9287653,2.80521962 C36.1211669,3.36340901 32.7605156,6.29537221 28.9972863,9.85603294 C33.9332429,9.7326437 38.2740841,9.26846516 42.4165536,10.749136 C42.6849389,10.8431468 42.8132972,11.3367037 43,11.5834822 C42.7666214,11.8596391 42.6616011,12.1122932 42.5332429,12.1240446 C36.7396201,12.6117258 32.4046133,15.7552134 28.7113976,19.9621987 C28.1989729,20.6088248 27.9544055,21.4298081 28.0287653,22.253713 C28.1746269,23.3172107 29.1956581,23.3172107 30.1291723,23.311335 C32.7255088,23.311335 35.3218453,23.311335 38.0932157,23.311335 L38.0932157,30.8439539 C36.0569878,30.9790945 35.456038,32.2423652 35.2109905,34.3693606 C34.4991859,40.5682006 33.431479,46.7082839 32.4921303,52.8953726 C32.4027146,53.2697852 32.2916709,53.6386218 32.1595658,54 L11.9489824,54 C11.5289009,51.4617072 11.0854817,49.0879334 10.7470828,46.7024082 C10.0994573,42.1605093 9.42265943,37.6244861 8.93839891,33.0649601 C8.7458616,31.2552514 7.50312076,31.2552514 6.17869742,30.9673432 L6.17869742,23.4347243 L17.4450475,23.4347243 C13.1158752,16.9068463 7.86485753,12.7938718 0.280054274,11.9242715 C2.33962008,9.82077887 7.53812754,9.18032999 14.4227951,10.055806 C10.6303935,5.32588538 5.96865672,2.89923046 0,2.36454379 Z M34.1199457,31.3610136 L10.1286296,31.3610136 L13.1158752,52.413567 L31.0860244,52.413567 L34.1199457,31.3610136 Z M7.57313433,29.5983102 L36.5937585,29.5983102 L36.5937585,24.9741518 L7.5614654,24.9741518 L7.57313433,29.5983102 Z M6.69796472,11.295574 C9.18928087,13.0994071 11.5814111,14.5213211 13.5826323,16.3721596 C15.5838535,18.2229981 17.2641791,20.5908962 19.1195387,22.6885132 C19.4387346,23.0277398 19.8706828,23.2368741 20.3331072,23.276081 C22.3284939,23.3348377 24.3238806,23.276081 26.3951153,23.276081 C23.9913161,15.0736348 15.4496608,10.0205519 6.69796472,11.295574 Z M37.0371777,1.77110033 C28.2854817,0.443197156 20.4147897,5.37876648 18.2385346,11.3837092 C19.0712556,11.8441508 19.879463,12.3481907 20.6598372,12.8937583 C21.5058345,13.5459586 22.2176391,13.3990666 23.0286296,12.8526286 C24.6972863,11.7303741 26.4884668,10.8490225 27.6962008,9.04518941 C28.6288483,7.79847128 29.7605632,6.71634325 31.0451832,5.84294502 C32.8246947,4.4739121 34.7734057,3.27527384 37.0371777,1.77110033 Z M23.1803256,14.6447103 L26.8268657,19.3452525 C28.5772049,17.7411925 30.0416554,16.1900136 31.7103121,14.8973645 C33.3789688,13.6047154 35.1118046,12.6881096 37.3230665,11.277947 C31.8620081,10.8490225 27.4161465,11.7068714 23.1803256,14.6447103 Z M20.2981004,5.24362589 C17.3458616,2.4409276 11.3830393,0.801613499 6.96635007,2.02963015 C8.67584803,3.14600893 10.4203528,4.13899847 11.9898236,5.35526377 C13.6584803,6.64791288 15.1579376,8.15208639 16.8265943,9.65625989 L20.2981004,5.24362589 Z" id="Shape"></path>
        </g>
        <g id="Group" transform="translate(2.000000, 13.000000)" fill="#FFFFFF" fill-rule="nonzero">
            <path d="M0.0155645246,18.4842169 L3.97590948,18.0650602 L2.54739796,8.61927711 C4.49853565,8.45987952 4.6959722,10.3018072 6.1419046,11.2050602 L6.1419046,0 C8.06981446,0.554939759 7.99432402,2.29060241 9.04538331,3.36506024 C11.0487836,1.65891566 13.1102535,0.118072289 16.042767,0.165301205 C18.9752805,0.21253012 20.9786808,1.45228916 22.8717489,3.63072289 L25.1480762,0.0177108434 L25.9262085,0.230240964 C25.9610503,2.0013253 26.0075059,3.77240964 26.0249268,5.58481928 C26.0423477,7.39722892 26.0249268,9.05614458 26.0249268,10.7859036 L26.675306,11.2877108 L28.3593237,7.99939759 L29.3000508,8.63108434 C29.7471865,11.7718072 28.0225202,14.7295181 28.179308,18.0473494 L31.6286407,18.4192771 C32.2848269,20.9519277 31.866726,23.4609639 31.8899538,26.2061446 C29.7529935,25.9286747 29.276823,27.2687952 29.0561586,28.9454217 C28.2606054,34.9671084 27.4069827,40.976988 26.6288504,46.9986747 C26.4894834,48.0495181 26.402379,49 25.0725858,49 C18.6849326,49 12.3495421,49 5.77606628,49 C5.25924707,45.1272289 4.79469048,41.4610843 4.27206431,37.7831325 C3.74943814,34.1051807 3.15132153,30.4331325 2.59385362,26.8024096 C-0.0250841774,25.9345783 -0.0192772199,25.9345783 0.00395060973,23.3015663 C0.0271784394,21.8610843 0.0155645246,20.396988 0.0155645246,18.4842169 Z M7.10585953,47.4473494 L25.0145162,47.4473494 L27.9528367,26.3478313 C19.724378,26.3478313 11.9720898,26.1471084 4.1094695,26.4777108 L7.10585953,47.4473494 Z M30.4730562,19.936506 C20.7464025,19.936506 11.2578341,19.936506 1.79249349,19.936506 L1.79249349,24.6593976 C11.4320428,24.7184337 20.9148043,24.8187952 30.4730562,24.6121687 L30.4730562,19.936506 Z M15.1891443,1.28108434 C13.9179437,1.97985392 12.6885858,2.75458502 11.5075333,3.60120482 C10.2996861,4.59891566 9.8235156,5.72650602 10.8223123,7.3913253 C12.1114568,9.52843373 13.0521839,11.8839759 14.1787337,14.1273494 C14.4707854,14.5316649 14.810075,14.8984083 15.1891443,15.2195181 L15.1891443,1.28108434 Z M16.9312315,14.8593976 L17.407402,15.0187952 C18.5687935,12.6573494 19.7824476,10.2604819 20.9612599,7.8813253 C22.1981419,5.37819277 22.0587749,4.59301205 19.8695519,2.97542169 C18.9310572,2.40334103 17.9483825,1.90974844 16.9312315,1.49951807 L16.9312315,14.8593976 Z M8.14530491,5.49036145 L7.7097831,5.64975904 C7.7097831,8.24144578 7.38459349,10.8921687 7.82592225,13.4012048 C8.11046317,14.9892771 9.32411727,16.6186747 10.5493853,17.7462651 C11.2810619,18.4192771 12.8373265,18.1595181 14.5852207,18.3956627 L8.14530491,5.49036145 Z M24.6602918,5.67927711 L23.9053873,5.53168675 L17.8080821,17.9706024 C21.1354687,18.3661446 23.6150395,16.8843373 24.1028239,14.0210843 C24.5673805,11.2936145 24.497697,8.46578313 24.6602918,5.67927711 Z M8.46468757,17.9883133 C7.3555587,16.4061446 6.62388207,14.776747 4.98051312,13.5074699 C5.54959494,18.2008434 5.54959494,18.2008434 8.46468757,17.9883133 Z M26.814673,13.4012048 L23.6556882,17.8171084 C26.5591669,18.4251807 27.0643722,17.6931325 26.814673,13.4012048 Z" id="Shape"></path>
        </g>
        <g id="Group-7" transform="translate(254.000000, 14.000000)" fill="#FFFFFF" fill-rule="nonzero">
            <path d="M30.8418658,0.179190026 L27.7189989,5.16358457 L34.6245734,4.2787808 L35,4.9276369 C32.8384528,9.19828974 29.4823663,12.6608218 26.7690557,17.1025367 L33.1569966,17.4682556 L33.1569966,24.9949863 L30.92719,25.5376659 C30.5802048,27.6965871 30.1763367,29.9793808 29.8577929,32.2739719 C29.2282897,36.827762 28.629124,41.3835182 28.0602958,45.9412407 C27.9124005,47.1209791 27.6564278,48.0116816 26.2286689,47.9998842 C20.2673493,47.9467959 14.2832765,47.9467959 8.3447099,47.9173025 C8.17406143,47.9173025 8.00910125,47.7639365 7.65073948,47.5869757 L4.54493743,25.7618162 C1.99658703,24.8947085 2.00227531,24.8947085 2.01365188,22.2226012 C2.01365188,20.7538269 2.01365188,19.2732553 2.01365188,17.5036477 L8.33333333,17.5036477 C5.84186576,12.7021126 2.40614334,9.24547927 0,4.84505521 C2.58248009,3.87177107 4.81228669,4.9276369 7.53128555,5.43492439 L4.2036405,0.00812796528 C10.5290102,-0.168832788 14.6018203,2.55046412 17.5028441,7.51126389 C21.6723549,0.969614723 26.4732651,-0.363489616 30.8418658,0.179190026 Z M8.93629124,46.1889858 L26.5699659,46.1889858 L29.3287827,25.5435646 C24.0671217,24.9536954 8.04891923,25.1424536 6.10352673,25.8208031 L8.93629124,46.1889858 Z M3.58930603,23.449529 C7.95221843,24.0806891 29.8350398,23.8742348 31.7178612,23.2548722 L31.7178612,18.7895625 C22.21843,18.8603468 12.9465301,18.6774874 3.58930603,18.9075364 L3.58930603,23.449529 Z M27.8782708,2.21423869 L27.3094425,1.4179153 C25.9783845,2.05497401 24.596132,2.59765365 23.3276451,3.3526862 C21.29124,4.53242455 20.0170648,6.49668891 18.9647327,8.62021794 C18.5470965,9.3365727 18.0774001,10.0188658 17.559727,10.6611653 L16.188851,8.71459701 C15.1365188,7.22222799 14.2605233,5.53520215 12.9806598,4.29647688 C11.4203842,2.63308051 9.24235604,1.75115355 7.00796359,1.87801325 L17.5824801,14.7253639 C19.254835,12.6667205 20.9954494,10.513698 22.7360637,8.38427027 C24.476678,6.25484254 26.1717861,4.30827426 27.8782708,2.24963084 L27.8782708,2.21423869 Z M32.5426621,6.02479357 C25.7565415,6.72083919 19.9658703,11.6580442 19.1808874,17.2794975 C20.49428,17.3653884 21.8120683,17.3476413 23.1228669,17.2264092 C24.018953,17.1037405 24.8467509,16.6641137 25.4664391,15.9817853 C27.8213879,12.8849721 30.0284414,9.62889423 32.5483504,6.06018572 L32.5426621,6.02479357 Z M16.0466439,17.2323079 C15.0910125,11.2333384 7.30375427,5.56469561 2.85551763,6.34922161 C5.30716724,9.82355106 7.67918089,13.2152988 10.0967008,16.5657558 C10.4025239,16.9339259 10.8356214,17.1627218 11.3026166,17.2028145 C12.8725825,17.3148896 14.4425484,17.2735988 16.0523322,17.2735988 L16.0466439,17.2323079 Z" id="Shape"></path>
        </g>
        <g id="Group-4" transform="translate(256.000000, 97.000000)" fill="#FFFFFF" fill-rule="nonzero">
            <path d="M16.3441385,0.0351325455 C18.9450607,5.39870116 20.1352148,11.3126797 22.5677738,17.1681039 L31.5026383,9.21058235 C32.3154265,10.3816672 31.9612831,11.1780049 31.6361678,12.1031619 C30.237011,16.1258384 28.919133,20.1719365 27.490948,24.4522517 L31.8741986,24.7274566 L31.8741986,32.0760141 C31.2413849,32.3629298 30.2137884,32.4976046 29.8248112,33.0772916 C29.3255271,33.8209305 29.2848877,34.904184 29.1455525,35.8586181 C28.2863193,41.81944 27.4619198,47.7861173 26.6026866,53.7469392 C26.4940111,54.1766204 26.3483163,54.595902 26.1672644,55 L5.91722707,55 L2.70090807,32.9074843 L0.233515338,32.2048334 C0.127013904,31.9477898 0.0528975122,31.6782888 0.0129013999,31.4026403 C-0.0161267499,30.3310976 0.0129013999,29.259555 0.0129013999,28.1880123 C0.0129013999,24.733312 0.0129013999,24.733312 3.42661182,24.5927819 C3.79766719,24.5470324 4.16592223,24.4805689 4.52968151,24.3936974 C3.36855552,19.3521772 1.12758235,14.6736932 0.204487189,9.5619078 C3.92009036,11.3185351 6.30620427,14.5155967 9.65605276,17.2910678 L15.6242404,0 L16.3441385,0.0351325455 Z M7.2409107,53.7820718 L22.0220446,53.7820718 C22.6026076,53.7820718 23.1831706,53.7820718 23.7637336,53.7820718 C25.0816116,53.7820718 25.2848086,52.9096135 25.4241437,51.8614926 C25.9756786,47.8153944 26.5852697,43.7810071 27.1368046,39.734909 C27.444503,37.4454381 27.6709225,35.1442564 27.9321759,32.8723518 C24.7158569,32.2458214 6.45134502,32.3570744 4.2568169,33.0187374 L7.2409107,53.7820718 Z M30.5563206,26.2615778 L1.74878476,26.2615778 L1.74878476,30.846375 L30.550515,30.846375 L30.5563206,26.2615778 Z M25.7898984,24.4522517 C26.4459346,22.5668051 27.0555257,20.8394549 27.6418944,19.1062493 C28.228263,17.3730438 28.8030204,15.6691153 29.3487496,13.9476206 L28.8436598,13.7426807 L17.3310956,24.4522517 L25.7898984,24.4522517 Z M14.9159535,24.4522517 L3.30469359,13.7426807 L2.85766008,14.0881508 L6.34103805,24.4522517 L14.9159535,24.4522517 Z M15.3049307,7.57691898 L14.7243677,7.36026828 C13.5284079,10.8735228 12.3150313,14.3867774 11.1597109,17.9000319 C11.0863795,18.2759048 11.1892216,18.6648706 11.4383812,18.9540083 C12.5995071,20.0723943 13.7606331,21.1205153 15.2933195,22.4672629 L15.3049307,7.57691898 Z M16.947924,22.5785159 L21.261507,18.5382732 C20.5764427,16.5005855 19.9784628,14.5682955 19.2817872,12.6828489 C18.625751,10.8910891 18.3296639,8.92952198 16.9595352,7.4598105 L16.947924,22.5785159 Z" id="Shape"></path>
        </g>
        <g id="Group-3" transform="translate(125.000000, 96.000000)" fill="#FFFFFF" fill-rule="nonzero">
            <path d="M34.9623664,25.1884996 L34.9623664,32.9487714 C32.5066628,32.7956856 32.3867331,34.5914996 32.1582955,36.3873136 C31.3987407,42.2752285 30.5763655,48.2043587 29.8168107,54.1158252 C29.6511934,55.3935027 29.131498,56.0058459 27.8008493,55.9999579 C21.7244106,55.9587425 15.6479719,55.9999579 9.37165031,55.9999579 L6.15639186,33.5375629 L3.4722507,32.836901 C3.4722507,30.8526737 3.4722507,28.9037739 3.4722507,26.9489862 C3.4722507,25.6830845 4.13471958,25.229715 5.27690731,25.2414909 C7.17293894,25.2414909 9.06325963,25.2414909 11.4218773,25.2414909 C8.52072046,20.7077965 4.91711817,18.0817864 0,17.4164521 C1.49626592,14.7845541 6.69322009,14.65502 13.5177918,17.0396255 C15.6993703,11.7405022 16.7787377,5.97034564 19.2287304,0 C22.0841997,5.74071696 23.2263875,11.5756406 25.5792942,16.8571002 C32.9178503,14.5961409 37.1724996,14.7197871 39,17.4458916 C33.9629521,17.9287007 30.4735686,20.7784514 27.3439742,25.1943876 L34.9623664,25.1884996 Z M31.0046859,33.3609254 L7.65836872,33.3609254 L10.6394787,54.5574188 C16.1790892,54.5574188 21.4902621,54.5574188 26.7843022,54.5574188 C28.0349978,54.5574188 28.3605213,53.8273174 28.4975838,52.7145015 C29.0172793,48.7460469 29.6397716,44.7834802 30.1480451,40.8150256 C30.4735686,38.436308 30.7077171,36.016375 31.0046859,33.3668133 L31.0046859,33.3609254 Z M5.305462,31.4414652 C9.82852541,32.0302567 31.5757798,31.8182917 33.6716942,31.1882849 C33.6716942,30.5465021 33.6716942,29.863504 33.6716942,29.1805059 C33.6716942,28.4975078 33.5460536,27.6908634 33.4718114,26.82534 L5.32259482,26.82534 L5.305462,31.4414652 Z M5.67096207,16.9925222 C7.82969688,19.0709561 10.239713,20.7784514 11.8159321,23.086514 C13.4778152,25.512335 15.2824718,25.44168 17.595402,25.023638 C15.3452921,19.3712398 11.6617367,16.9218672 5.68809489,16.9984101 L5.67096207,16.9925222 Z M20.9705667,24.9235435 C23.7403719,25.6418691 25.5393176,25.2179392 27.1269586,22.8863249 C28.3776541,21.0257439 30.3707717,19.6950751 32.0326549,18.1288898 L33.4204129,16.8453243 C27.4010836,16.9277551 23.5233563,19.5125497 20.9934105,24.9294314 L20.9705667,24.9235435 Z M20.2281447,22.2386543 C21.4959731,20.807891 22.5125201,19.7127389 23.4662469,18.5469317 C23.7724149,18.1978058 23.9216938,17.7318162 23.8774345,17.2633663 C22.8608874,14.1133318 21.7643872,10.9868491 20.6964416,7.84270255 L20.2281447,7.96046085 L20.2281447,22.2386543 Z M18.5891053,8.51981276 L17.9894567,8.36672697 C17.0471519,11.3106844 16.0820032,14.2546418 15.1796749,17.1985992 C15.033511,17.6479644 15.0791764,18.1401696 15.3053156,18.5528196 C16.2419095,19.6715234 17.2927222,20.6901327 18.5891053,22.050241 L18.5891053,8.51981276 Z" id="Shape"></path>
        </g>
        <g id="Group-9" transform="translate(65.000000, 10.000000)" fill="#FFFFFF" fill-rule="nonzero">
            <path d="M14.9065063,16.0956358 C15.6180062,12.7421257 14.9414981,10.278563 12.3637689,8.31596396 C10.7541462,7.09007628 9.44778568,5.46931131 7.98979406,4.01356969 C7.34244578,3.35937001 7.35994168,3.34168894 7.11499909,1.23174764 C10.1592856,3.37705109 12.1013304,6.20012897 15.1106251,8.64601064 L15.1106251,0.0530094879 C16.6327684,-0.206312906 16.7377438,0.52450475 16.7319118,1.40266468 C16.7319118,3.60690503 16.7319118,5.80525169 16.7319118,8.75799077 L24.3951157,1.20817288 L25.0716238,1.61483754 C24.9258247,2.12169495 24.9258247,2.7935757 24.6050665,3.11772869 C22.8000037,5.17224181 20.8738978,7.11479698 18.8372517,8.93480149 C16.5511208,10.8443573 16.3586659,13.060385 16.9535265,15.9600809 C19.9219974,13.9031828 21.7299071,10.7500582 24.5934026,8.88765196 L25.1765992,9.33557246 C25.0383315,9.89699245 24.8076717,10.4309334 24.4942592,10.9150816 C22.3422635,13.1782588 20.1086204,15.3648181 17.9332969,17.6044206 C16.7669036,18.7831588 16.7960634,18.8244146 17.0060142,21.4117449 C21.91653,21.5944493 26.9203572,21.4117449 32,21.5119376 L32,29.1324798 L29.5214143,29.680593 L26.2438491,52 L5.70949517,52 L2.49608165,29.7218489 L0,29.1737356 L0,21.6298114 C4.87552397,21.2879774 9.78020776,21.6298114 14.6965555,21.4117449 C15.483871,19.7615114 15.0756333,18.5827733 13.8684163,17.445291 C11.8855477,15.5710973 9.99015856,13.5967109 8.08893749,11.6282182 C7.53490067,11.0388491 6.61344997,10.5791412 7.25496628,9.05267531 C10.1826134,10.9740185 12.0838345,13.8383522 14.9065063,16.0956358 Z M6.99835976,50.4087035 L24.9783124,50.4087035 L27.993439,29.6334435 L4.02988883,29.6334435 L6.99835976,50.4087035 Z M1.45215965,27.9360606 L30.5011846,27.9360606 L30.5011846,23.2211079 C25.9814106,22.6317389 3.35921268,22.838018 1.43466375,23.4686429 L1.45215965,27.9360606 Z" id="Shape"></path>
        </g>
        <g id="Group-8" transform="translate(128.000000, 2.000000)" fill="#FFFFFF" fill-rule="nonzero">
            <path d="M15.8921086,0 C20.4118826,5.39068095 24.2784764,10.5355328 25.6081648,17.1670654 C26.3051585,20.5547078 24.4279623,23.944397 21.1933661,25.1389519 C19.8649678,25.5786306 18.5138706,25.9459586 17.1459814,26.2393297 L17.1459814,29.517051 L32,29.517051 L32,37.126047 C29.7546929,37.126047 29.4572626,38.7707607 29.223984,40.7315404 C28.524148,46.5846142 27.649353,52.4669533 26.8445416,58.3375863 C26.7162384,59.2916373 26.3604884,60.0115654 25.223255,59.9998593 L6.33351558,59.8067078 C6.25186805,59.8067078 6.17022052,59.7130587 5.92527793,59.5608787 L2.75852014,37.9045058 C0.0291598323,37.0850754 0.0233278659,37.0850754 0,34.3926615 C0,32.9528054 0,31.5070961 0,29.751174 L14.784035,29.751174 C15.9504283,26.5963672 15.7929652,26.338832 13.0344451,25.8237615 C7.58738837,24.8111797 5.18461819,20.948151 6.61928194,15.5399109 C7.8789867,10.8574519 10.5908511,6.9417455 13.4076909,3.1021291 C14.0725351,2.17149037 14.8248588,1.3169416 15.8921086,0 Z M7.24330235,58.2380841 L25.3223984,58.2380841 L28.1567341,37.7523259 C23.3220339,37.1670185 6.38017131,37.3426107 4.32731912,37.9805957 L7.24330235,58.2380841 Z M17.1984691,24.35464 C22.8496446,24.1322232 25.3632222,20.3745498 23.5494806,15.1828734 C21.9281939,10.5589451 19.2454893,6.5612957 15.9679242,2.65729549 C15.133953,3.67573033 14.3699654,4.51857295 13.7167851,5.43750554 C11.2265354,8.92008443 8.87625296,12.4611941 7.88481866,16.7456441 C6.81173683,21.3812785 10.7191544,25.1857765 15.5013669,23.9976025 C14.9181702,20.6906158 10.8766175,19.7950955 10.0718061,16.3886066 C12.7428467,16.2013082 13.215236,19.2390535 15.3205759,19.5843849 C15.7638054,14.123467 15.7638054,14.123467 16.7960634,13.245506 L17.1284855,19.5668256 C19.123018,18.7591014 19.6187352,16.0549814 22.7271733,16.4822558 C21.385821,17.9455242 20.3244031,18.9990775 19.3854565,20.152133 C18.4465099,21.3051885 16.4694733,22.0251166 17.1926371,24.35464 L17.1984691,24.35464 Z M30.6878075,31.2729732 L1.90705303,31.2729732 L1.90705303,35.8091054 L30.6819756,35.8091054 L30.6878075,31.2729732 Z" id="Shape"></path>
            <path d="M21.1692308,42.0686406 L17.2307692,46 C17.306198,44.8847208 17.1822793,44.3549631 17.3924024,44.0203793 C18.2921604,42.5928219 19.5960013,41.7452097 21.1692308,42.0686406 Z" id="Shape"></path>
            <path d="M19.7322133,56 C18.7871316,54.1590198 19.0358373,53.2758081 21.0033757,50.5 C22.2579578,51.3660063 21.3902513,52.3065693 21.075224,53.1381648 C20.7601968,53.9697602 20.2572586,54.898853 19.7322133,56 Z" id="Shape"></path>
            <path d="M9.94738867,50.5 C11.4209177,50.8421617 12.9000709,51.145588 14.3679758,51.5458526 C14.5479488,51.5910438 14.8179083,52.0946025 14.7616667,52.2430877 C14.6379353,52.5594258 14.3004859,53.0307051 14.0980163,52.9984257 C12.6019906,52.766014 11.0159784,52.7789258 9.84615385,51.4683821 L9.94738867,50.5 Z" id="Shape"></path>
            <path d="M8.44072233,40 C10.242194,41.1164466 10.5064098,43.0012005 11.3230769,45 C10.5484441,44.8439376 9.98398302,44.8979592 9.76180152,44.6518607 C8.65814339,43.3710724 8.1748827,41.6693868 8.44072233,40 Z" id="Shape"></path>
        </g>
        <g id="Group-2" transform="translate(65.000000, 105.000000)" fill="#FFFFFF" fill-rule="nonzero">
            <path d="M5.77623654,46.9707493 C5.19218836,43.3202639 4.60814017,39.780931 4.08833729,36.2298979 C3.65614163,33.3457804 3.17138164,30.4616629 2.92024092,27.559995 C2.75670743,25.6528504 2.56981201,24.014812 0,24.2488175 L0,16.8132935 L3.66198211,16.450585 L5.12210257,10.8052029 L1.81054937,8.34229525 C3.84887753,7.2892706 4.72494981,9.04431168 6.44205147,9.04431168 L9.32140902,6.31814787 L7.02609965,2.98941997 C8.12995072,2.10019915 8.88921336,2.60331093 9.17539697,3.30532736 C10.1507574,5.64538213 11.8444972,5.34117501 13.6900894,4.74446104 C14.0580398,4.6274583 14.4318306,4.52800597 14.9633145,4.37005228 L15.5473627,0 C16.715459,1.36893204 16.715459,1.36893204 16.9140354,4.17114762 C17.527286,4.37005228 18.2339843,4.60990789 18.9465231,4.82636296 C19.6590619,5.04281802 20.412484,5.24757282 20.9614893,5.41137665 C22.7136339,4.89071446 22.66691,2.29325367 25.3885746,2.66766243 L22.9881365,6.11924322 L26.3464136,8.98581031 L29.8507027,7.54667662 C29.8507027,9.88673139 27.7831721,9.69952701 26.9304618,10.8461538 L28.3321774,16.4388847 L32,16.7372417 L32,24.2546677 C29.7046906,24.1025641 29.4243475,25.5592482 29.1790473,27.5307443 C28.3730608,33.9658949 27.2984121,40.4010456 26.3055302,47 L5.77623654,46.9707493 Z M4.02409199,24.6349266 L7.02609965,45.5959671 L24.9855813,45.5959671 L28.0518343,24.6349266 L4.02409199,24.6349266 Z M26.2996897,16.4096341 C26.7318854,11.3434155 22.0536594,5.83258651 15.7868224,5.93203883 C10.2033218,6.01979089 5.95145099,10.4424944 5.68278883,16.4096341 L26.2996897,16.4096341 Z M30.5515605,22.9325367 L30.5515605,18.2524272 L1.54188721,18.2524272 L1.54188721,22.9325367 L30.5515605,22.9325367 Z" id="Shape"></path>
            <path d="M12.3076923,15 C10.933672,14.0046917 9.63450108,12.9430295 9.87508829,10.5 C11.730283,11.6400804 12.1900719,13.208445 12.3076923,15 Z" id="Shape"></path>
            <path d="M18.7076923,12.5280634 C20.1498643,11.5403185 21.0707692,11.8676186 23.1384615,14.1119619 C21.4877828,14.784096 21.4472398,14.7724067 18.7076923,12.5280634 Z" id="Shape"></path>
            <path d="M13.7846154,10.4288541 L17.7230769,8 C17.4248791,10.2130789 16.1701978,11.0872451 14.0378022,10.9931893 L13.7846154,10.4288541 Z" id="Shape"></path>
        </g>
        <g id="Group-39" transform="translate(64.000000, 362.000000)" fill="#FFFFFF" fill-rule="nonzero">
            <path d="M25.2725208,31.4648684 L31.4731987,31.4648684 L31.4731987,39.0021692 L29.2973244,39.6336886 L26.3040882,61.7661039 C25.647252,61.8812727 24.984871,61.959353 24.3198713,62 C19.4344887,62 14.5491062,62 9.66372368,62 C7.17217859,62 7.23418537,61.9532208 6.92978846,59.4739225 C6.18007014,53.4043195 5.32888619,47.3522588 4.60171579,41.2768085 C4.41005847,39.668773 3.52505264,39.1717438 2.03125298,39.1717438 L2.03125298,31.6344431 L7.66823282,31.3245308 C6.61975457,29.4241252 5.70656383,27.775158 4.79901008,26.1144959 C3.89145633,24.4538338 2.91062184,22.7580873 2.05943788,21.0331038 C1.26462372,19.419221 -0.251723851,18.080166 0.035762121,15.3318872 L5.93768001,20.4542111 C4.58480485,16.7586532 2.14962956,14.1156277 1.19134299,10.8001509 L1.82268473,10.2972744 L4.91174968,12.7473357 L5.27251639,12.460813 L1.42245916,4.98783363 L1.81141077,4.50249929 C2.34867149,4.606999 2.86511152,4.80468097 3.3390323,5.08723946 C5.18796169,6.74205414 6.96924732,8.47288503 8.77871785,10.1744789 C9.34241583,10.6773555 9.86665495,11.1685372 10.6445582,11.8702254 L16.1857093,0 C18.3221247,1.4092238 18.6772544,3.73648967 19.6862738,5.5842686 C20.6952932,7.43204753 21.6423058,9.49033292 22.6287773,11.4901443 C25.3908974,9.08101481 27.9951821,6.81222296 30.6163777,4.54927851 C30.6727475,4.50249929 30.9264116,4.70131095 31.4450138,4.98198623 L27.4032992,12.6479298 L27.6907852,12.9227577 L31.2533564,9.94058285 C31.2533564,11.034047 31.4450138,11.6948034 31.2195346,12.1275111 C30.0921386,14.3612185 28.8407291,16.5306045 27.6400524,18.7233802 C27.3480216,19.1554446 27.2590002,19.7009214 27.3976622,20.2086202 L32.4709441,15.5306989 C33.626525,17.0334811 32.5949576,17.8696595 32.1439993,18.6941432 C30.0921386,22.5124965 27.9557232,26.2957653 25.8644037,30.0731868 C25.6426972,30.5254907 25.4451054,30.9900842 25.2725208,31.4648684 Z M6.1067894,39.4524191 C6.01026974,39.8542195 5.95919281,40.266314 5.95459095,40.6803735 C6.72122021,46.8376874 7.51039738,52.9950014 8.2883006,59.1523154 C8.43486208,60.3217957 9.19585435,60.4679808 10.120319,60.4621334 C12.651323,60.4621334 15.1936009,60.4621334 17.7189679,60.4621334 L24.9906719,60.4621334 L27.8091618,39.4641139 L6.1067894,39.4524191 Z M3.40667606,37.6981986 L30.1259605,37.6981986 C30.1259605,36.4293125 30.1259605,35.359238 30.1259605,34.3067056 C30.0828251,33.911875 30.0112228,33.5209533 29.9117552,33.1372253 L3.41795002,33.1372253 L3.40667606,37.6981986 Z M15.6389223,29.6580213 C16.4224625,26.6992361 15.6389223,24.7111195 13.5419658,23.0095256 C11.3322697,21.2202207 9.35932677,19.1151561 7.27364423,17.1621239 C6.95301786,16.9036881 6.61381025,16.671063 6.25898786,16.4662831 C8.47432093,21.5652174 10.8193045,26.4536452 15.6445593,29.6580213 L15.6389223,29.6580213 Z M26.5577522,16.4195039 C23.9534676,18.910497 21.4281006,21.500896 18.7110763,23.8573988 C16.8790579,25.4478921 17.0819891,27.1670282 17.5216736,29.1200604 C22.4822158,26.2548335 24.4889806,21.3371687 26.5577522,16.4195039 Z M6.49010403,10.2855796 C8.12482818,15.5482411 11.2984478,19.4426106 15.723477,22.7463925 C15.9038604,21.1558993 16.287175,19.8636235 15.159779,18.7584646 L6.49010403,10.2855796 Z M26.5746632,10.3265114 C25.7629381,11.0106574 25.2612469,11.3731963 24.8328364,11.805904 C22.8824414,13.7530887 21.0673339,15.8698482 18.9760144,17.6533057 C17.3694751,19.0040555 16.8959688,20.4249741 17.5047626,22.5651231 C21.7832303,19.5771008 24.6299051,15.6417995 26.5746632,10.3265114 Z M14.7031837,31.3011412 L4.79901008,21.7815713 C5.56563934,24.2608696 6.89596658,26.3133076 7.87116409,28.5294728 C8.89709442,30.8684335 10.3288873,32.0086768 12.8204324,31.4941054 C13.215021,31.4063944 13.6772533,31.400547 14.7031837,31.3011412 Z M28.3728598,22.1733472 L27.9726342,21.8809771 L17.961358,31.4648684 C19.9004791,31.4648684 21.1687995,31.5408847 22.4145721,31.4239366 C22.9544803,31.346906 23.4398511,31.0422739 23.7561733,30.5819108 C25.3401646,27.8102424 26.8452382,24.9801 28.3728598,22.1733472 Z M21.6084839,12.8175045 C20.1034103,10.2621899 19.3255071,7.61916439 17.4258449,5.15156088 L17.4258449,16.6767896 L21.6084839,12.8175045 Z M15.7854838,5.72460624 L15.2725186,5.55503159 L11.8395979,13.291144 L15.7854838,16.799585 L15.7854838,5.72460624 Z" id="Shape"></path>
        </g>
        <g id="Group-36" transform="translate(191.000000, 451.000000)" fill="#FFFFFF" fill-rule="nonzero">
            <path d="M26.3258427,17.4214961 L31.0997191,13.4138448 L31.679073,13.8381844 C31.6168166,14.4315327 31.4785297,15.0140477 31.2677317,15.5709042 C30.0279143,17.8929845 28.7127809,20.167916 27.4324087,22.466422 C26.8530548,23.5449517 26.2737008,24.6411622 25.4394312,26.2088611 L31.7833567,26.2088611 L31.7833567,33.7114202 L29.7440309,34.3007806 C29.6513343,34.4540144 29.4949087,34.6072481 29.465941,34.7840562 C28.4810393,41.3672129 27.4903441,47.9503696 26.5691713,54.5394199 C26.2331461,56.8968619 26.2852879,56.9675852 23.944698,56.9793724 C18.6339537,57.0068759 13.3232093,57.0068759 8.01246489,56.9793724 C5.78774579,56.9793724 5.8051264,56.9027555 5.50386236,54.7398025 C4.55372191,47.9621569 3.5804073,41.1845112 2.6070927,34.3715039 L0.249122191,33.7821434 L0.249122191,26.120457 L6.48876404,26.120457 C4.29301264,21.8829551 2.2536868,17.9637078 0.243328652,14.0326733 C0.208567416,13.9678437 0.457689607,13.7497803 0.793714888,13.3431215 L6.90010534,18.5648555 C7.4099368,16.3842217 7.41573034,14.604353 6.3207514,12.8362715 C4.48999298,9.84232022 2.71716994,6.80711368 0.961727528,3.76601354 C0.589110302,2.97695571 0.267842939,2.16385258 0,1.33195471 C3.16906601,2.16295301 4.53054775,4.63826707 7.03335674,6.2236468 L7.3520014,0 C10.0749649,1.4380396 10.3298806,4.35537404 12.3692065,6.21185959 L16.3030197,1.37910355 L20.6539677,6.45939099 L25.1323736,0.671870961 L25.8333919,0.860466319 L26.2157654,5.46926537 C28.7533357,4.29054438 29.8193469,1.25533785 32.4206461,0.75438143 L33,1.39089076 C31.8818469,3.29452515 30.7579003,5.19226594 29.6455407,7.09590033 C29.0426704,8.32120559 28.3574052,9.50273271 27.5946278,10.6320633 C26.0767205,12.5592721 25.7580758,14.6573954 26.3258427,17.4214961 Z M4.13079354,34.2418446 C5.05775983,40.9075118 5.97893258,47.3727964 6.8363764,53.8439746 C6.98121489,54.9283979 7.45049157,55.4057799 8.49912219,55.4057799 C13.5201896,55.4057799 18.541257,55.4057799 23.5623244,55.4057799 C24.6283357,55.4057799 25.0802317,54.881249 25.2076896,53.8145065 C25.4741924,51.5808303 25.856566,49.3648348 26.1636236,47.1370522 C26.7429775,42.8995502 27.3223315,38.6620483 27.9016854,34.2477382 L4.13079354,34.2418446 Z M1.65115871,32.6682521 C11.3958919,32.6211032 20.850948,32.7389753 30.2770365,32.5975288 L30.2770365,27.6115391 C20.6423806,27.6940495 11.1583567,27.493667 1.65115871,27.7294112 L1.65115871,32.6682521 Z M27.5482795,7.73240966 L27.1659059,7.29628289 L17.8498947,14.9579693 L20.7466643,18.3703665 L27.5482795,7.73240966 Z M14.6460674,15.2467559 L5.37640449,7.19609161 C7.1897823,11.1978494 9.15958567,14.9579693 12.0795295,18.3526857 L14.6460674,15.2467559 Z M16.2508778,13.1957814 L19.7270014,8.11549398 L16.4073034,3.90746006 L13.1223666,7.97404746 L16.2508778,13.1957814 Z M19.669066,19.9616399 L16.3551615,15.6357339 L13.0238764,20.0087887 L16.3841292,24.7767151 L19.669066,19.9616399 Z M5.3474368,19.4724707 L4.87816011,19.7258957 C5.79353933,21.2818074 6.67995084,22.8495063 7.62429775,24.3877372 C8.92205056,26.4976477 9.6346559,26.6744559 12.2301615,25.5664582 L5.3474368,19.4724707 Z M27.1948736,19.7023213 L26.7487711,19.3899602 L19.9935042,25.8729256 C23.2494733,26.2736907 23.3479635,26.3385204 24.0489817,25.2010546 C25.1787219,23.4329732 26.1520365,21.5470196 27.1890801,19.6964276 L27.1948736,19.7023213 Z M19.0375702,23.8278447 L19.4083567,24.1402058 C20.7698385,22.8259319 22.1371138,21.5175516 23.4638343,20.1973841 C24.900632,18.7829189 24.9064256,18.7004084 24.0779494,16.1602647 L19.0375702,23.8278447 Z M13.6611657,24.5350773 L14.0667135,24.2521843 L8.85252809,16.9971566 C8.20365169,19.2426201 8.7366573,20.5333195 10.1271067,21.5882748 C11.3843048,22.5135708 12.4908708,23.5567389 13.6611657,24.5350773 Z M13.0064958,10.9031691 L8.95101826,4.24928915 C7.59533006,8.53393993 10.8049508,9.39440625 13.0122893,10.9149563 L13.0064958,10.9031691 Z M20.4975421,9.93072429 C24.9527739,7.32575092 24.9527739,7.32575092 24.0895365,4.72077754 L20.4975421,9.93072429 Z" id="Shape"></path>
        </g>
        <g id="Group-40" transform="translate(125.000000, 372.000000)" fill="#FFFFFF" fill-rule="nonzero">
            <path d="M29.8325543,52 L9.55312131,52 L6.29939639,29.6917192 L3.82009267,29.059856 L3.82009267,21.5594059 L12.119114,21.5594059 L12.2982711,20.9743474 L0,13.0117012 C1.15585255,11.420342 1.99384565,12.4266427 2.68735717,12.859586 C5.15510237,14.3573357 7.5534964,15.9662466 9.98656602,17.540054 C10.6474,18.0329204 11.4331857,18.3251387 12.252037,18.3825383 C10.7667665,16.7560756 9.2294826,15.1764176 7.81356323,13.4914491 C6.39764386,11.8064806 4.39223968,10.5661566 3.81431341,8.15571557 C6.2358245,9.20882088 7.69797797,11.3442844 9.524225,13.0468047 C11.350472,14.7493249 13.153602,16.369937 14.9104979,17.9729973 L7.50148304,4.51665167 C8.83649273,3.71512151 9.23526186,4.45814581 9.59357615,5.10171017 C11.327355,8.22592259 13.0611338,11.3618362 14.7949126,14.4977498 C15.1415163,15.1824362 15.5811598,15.814592 16.101026,16.3757876 C15.7427117,11.6251125 13.7488661,7.17866787 13.8297757,2.33438344 C15.6964776,4.30018002 15.6271265,6.97389739 16.3264172,9.35508551 C17.025708,11.7362736 17.4822698,14.170117 18.0601961,16.5864086 L18.7132528,16.539604 L18.7132528,0 C20.3545634,0.0760576058 20.0944966,1.02385239 20.1002758,1.71422142 C20.1002758,5.71017102 20.1002758,9.70612061 20.1002758,13.7020702 C20.1002758,14.5679568 20.1002758,15.4572457 20.1002758,16.9842484 C21.8802887,14.339784 21.7300279,11.7772277 22.4119809,9.50720072 C23.0939339,7.23717372 23.5678335,4.6980198 24.1457597,2.1939694 C25.9373312,2.67371737 25.2611574,3.84383438 25.1051173,4.58685869 C24.4867362,7.51215122 23.712315,10.4374437 23.0188035,13.3627363 C22.7203914,14.5798788 22.527022,15.8209708 22.4408772,17.0720072 C25.5038865,12.9765977 27.1394178,7.98019802 30.1388552,3.87308731 L30.9190557,4.20072007 C30.8230216,4.84732193 30.6563271,5.48112213 30.4220391,6.09045905 C29.0061197,8.84608461 27.5324077,11.5666067 26.0702542,14.2812781 C25.5596602,15.1939541 25.1562258,16.1639355 24.8681676,17.1714671 C28.2548155,14.1408641 31.1560054,10.6363636 34.5368741,7.69351935 C35.7620778,8.78757876 34.8547336,9.30828083 34.3981718,9.80558056 C31.6588013,12.7952295 28.8789759,15.749775 26.307204,19.090459 L38.4841106,11.7889289 C39.5474949,13.0409541 38.7383982,13.4446445 38.0969,13.8366337 C34.6293423,15.9486949 31.1617847,18.0373537 27.7346819,20.1377138 C27.3474713,20.3717372 26.9833777,20.6525653 26.0009031,21.3370837 L35.3459709,21.3370837 L35.3459709,29.0013501 C33.2712156,29.0364536 32.8319916,30.39964 32.5892626,32.5117012 C31.872634,38.9941494 30.7976912,45.4122412 29.8325543,52 Z M31.4680856,29.5454545 L7.77310839,29.5454545 L10.8014421,50.5315032 C16.1761564,50.5315032 21.1752187,50.5315032 26.1685017,50.5315032 C28.5379994,50.5315032 28.6420261,50.3793879 28.9945612,47.8928893 C29.5724874,43.949595 30.1504137,40.0063006 30.6705474,36.0630063 C30.9826276,33.9626463 31.1964603,31.8564356 31.4680856,29.5513051 L31.4680856,29.5454545 Z M34.114988,27.790279 C34.1670013,26.7781278 34.2421317,26.1053105 34.224794,25.450045 C34.2074562,24.7947795 34.1034294,23.9639964 34.0398575,23.2736274 C30.1677515,22.6885689 7.25297474,22.8465347 5.20133647,23.490099 C5.16666089,24.1219622 5.08575121,24.7947795 5.103089,25.4617462 C5.12042679,26.1287129 5.23023278,26.9536454 5.31114246,27.8019802 L34.114988,27.790279 Z" id="Shape"></path>
        </g>
        <g id="Group-37" transform="translate(254.000000, 457.000000)" fill="#FFFFFF" fill-rule="nonzero">
            <path d="M28.1190671,3.6666014 L28.1190671,10.8624978 L35.2630802,4.83952666 C36.4604978,5.57260494 35.9283122,6.25290159 35.5407423,6.91560436 C33.2268919,10.8488137 30.9246107,14.7839779 28.6338988,18.721097 C28.3967291,19.1257562 28.2058365,19.5656032 27.7893434,20.3866509 L34.1119397,20.3866509 L34.1119397,28.1279576 L31.7055352,28.7144202 L28.4661447,51 L8.21995358,51 C7.8902299,49.0998611 7.50265995,47.1293467 7.21921328,45.1353737 C6.55205308,40.5101385 5.91574421,35.8790386 5.31028669,31.2420741 C4.98056301,28.7085556 5.02684001,28.7026909 2.50474307,27.9696127 L2.50474307,20.6974761 L8.20838433,20.6974761 C7.98315673,19.9714676 7.70869692,19.262112 7.38696743,18.5744814 C5.28136356,14.9736008 3.1121288,11.4079081 1.02387881,7.78943367 C0.606424717,6.90969295 0.263885658,5.99539488 0,5.05651783 L0.613170358,4.62840011 L7.46216757,10.4343801 C8.34143073,8.08852961 6.91841272,5.61952195 8.61909277,3.14464967 C11.7774986,7.44342072 13.9698718,12.0354231 17.0935699,16.16412 C17.3820371,12.8315597 17.4477463,9.483029 17.2902472,6.14147369 C17.2902472,5.70162672 16.6018767,5.29110288 16.2374452,4.86884979 C15.0226738,3.45547486 15.0053199,1.8133795 16.1853836,0.716694393 C17.1533527,-0.182775695 18.6204201,-0.242269961 19.6561592,0.575943363 C20.2981645,1.04356908 20.6932727,1.78378702 20.7282471,2.58445341 C20.7632215,3.38511981 20.4342013,4.15784978 19.8354826,4.68118175 C18.8636655,5.66057434 18.7768961,6.6575608 18.7826807,7.83635068 C18.7826807,10.6161835 18.7826807,13.3960164 18.7826807,16.1758492 L19.3611433,16.3224649 L27.2282347,3.4202871 L28.1190671,3.6666014 Z M30.1552555,28.7437433 C26.7770339,28.1572807 8.71743142,28.2569793 6.68702768,28.8493066 C6.63261981,29.1332012 6.60933987,29.4223245 6.61761217,29.7114067 C7.43902907,35.7871595 8.27779984,41.8629123 9.09343211,47.9386651 C9.27854014,49.305123 10.0883878,49.6218128 11.3205131,49.6100836 C16.1391066,49.5690312 20.9519155,49.6100836 25.7820782,49.5807604 C26.2809177,49.5168354 26.7715587,49.3988687 27.2455886,49.2288829 L30.1552555,28.7437433 Z M3.90462257,26.8201459 L32.6542139,26.8201459 L32.6542139,22.1284449 L3.90462257,22.1284449 L3.90462257,26.8201459 Z M20.6221918,19.92921 L20.7899459,20.5156727 C22.0141598,20.5667831 23.2401408,20.5550388 24.4631835,20.4804849 C25.105752,20.4374627 25.7060178,20.1405492 26.1349404,19.6535726 C27.8703282,16.8502813 29.5420851,13.9707498 31.2254113,11.1205414 L30.7973489,10.7862577 L20.6221918,19.92921 Z M5.33920982,10.8566332 L4.88222436,11.2612924 C6.4903504,13.9590205 8.0695533,16.6743425 9.72974097,19.3368828 C10.05616,19.8919042 10.5833105,20.295891 11.199036,20.462891 C12.8090357,20.5651956 14.4231843,20.5828131 16.0349833,20.5156727 L8.10426106,13.3256409 C7.19029015,12.5280517 6.26474998,11.707004 5.33920982,10.8859563 L5.33920982,10.8566332 Z M14.6929501,17.0965956 L15.1325817,16.6860717 C13.4550401,13.9238327 11.7774986,11.1674584 10.0826032,8.41694868 C10.007403,8.29379153 9.74131022,8.29379153 9.21490925,8.12958199 C9.42894042,9.73648959 9.16863225,11.5427945 9.92641826,12.6101565 C11.1585436,14.3812736 13.0732548,15.6538975 14.6929501,17.1259187 L14.6929501,17.0965956 Z M26.4010332,7.6838704 C24.4747527,10.9328733 22.8319189,13.7127062 21.1948697,16.4808098 C21.1948697,16.5277268 21.2469314,16.6567486 21.3047776,16.7153948 C21.3626239,16.7740411 21.4493933,16.7740411 21.6576398,16.8502813 C22.509774,15.9851181 23.4139038,15.1742498 24.3648448,14.422326 C26.5803566,12.9033878 27.2513732,10.8507686 26.4010332,7.7073289 L26.4010332,7.6838704 Z M17.9901869,4.25892866 C18.4645263,3.67246603 19.0487735,3.3088592 19.0661274,2.90419999 C19.0834812,2.49954078 18.5570803,2.01864142 18.267849,1.57292983 C17.8166482,1.96585979 17.1861239,2.28841423 16.9894466,2.78690747 C16.8795387,3.08013878 17.5216322,3.6666014 17.9901869,4.28238716 L17.9901869,4.25892866 Z" id="Shape"></path>
        </g>
        <g id="Group-43" transform="translate(256.000000, 273.000000)" fill="#FFFFFF" fill-rule="nonzero">
            <path d="M25.7272727,25.3014964 L31,25.3014964 L31,33.0102186 L28.6761364,33.7395823 L25.5454545,56 L5.53409091,56 L2.38068182,33.7810908 L0,33.0457973 L0,25.5149687 L5.39772727,25.2540581 C5.45454545,20.6525439 7.10227273,16.8752701 9.50568182,13.352977 C10.0305604,12.4317462 10.3364373,11.3927365 10.3977273,10.3228562 C10.8423958,6.99075335 12.1376403,3.84481096 14.1477273,1.21470447 C15.2840909,-0.344829325 15.9715909,-0.41598676 16.9488636,1.07831938 C18.9772727,4.17959761 20.7329545,7.42319071 21.0397727,11.3012709 C21.0979426,12.0756604 21.3594018,12.8183587 21.7954545,13.4478536 C24.4266553,16.7785783 25.8222024,20.9858728 25.7272727,25.3014964 Z M3.85227273,33.5320397 L6.77840909,54.4938343 L24.3068182,54.4938343 L27.1818182,33.5320397 L3.85227273,33.5320397 Z M29.5965909,31.6582273 L29.5965909,27.0982216 L1.44886364,27.0982216 L1.44886364,31.6582273 L29.5965909,31.6582273 Z M15.25,1.86698096 C14.1136364,4.35156142 12.9772727,6.48035469 12.1931818,8.74553306 C11.7238495,10.0369652 11.6877972,11.4562884 12.0909091,12.7718579 C12.9772727,14.9599491 14.3636364,16.9227084 15.5852273,18.9803442 C16.7897727,17.0057254 17.9375,15.2445788 18.9602273,13.4004153 C19.3662709,12.7475579 19.5650623,11.9778549 19.5284091,11.2004646 C19.0198331,7.7156272 17.5307,4.46703676 15.25,1.86698096 Z M11.5340909,25.117673 C14.4261364,25.4082325 14.8693182,25.2481283 14.7897727,23.81312 C14.6155916,20.7459214 13.4704485,17.8259078 11.5340909,15.5114192 L11.5340909,25.117673 Z M24.2159091,25.2481283 C24.4259481,21.8680566 23.2411322,18.5555532 20.9602273,16.1459063 L20.9602273,25.2481283 L24.2159091,25.2481283 Z M19.5340909,16.5787807 L18.7443182,16.5016935 C17.5284091,19.2293952 15.9715909,21.8385012 16.6363636,25.2421985 C17.9488636,25.2421985 19.3806818,26.0012112 19.4772727,24.09182 C19.6704545,21.5953799 19.5568182,19.1107995 19.5568182,16.5787807 L19.5340909,16.5787807 Z M9.97159091,16.1162574 C8.09090909,18.5889783 7.69886364,19.5318143 7.13068182,22.5263564 C6.60227273,25.3074262 7.13068182,25.7580899 9.97159091,24.8211837 L9.97159091,16.1162574 Z" id="Shape"></path>
        </g>
        <g id="Group-41" transform="translate(64.000000, 265.000000)" fill="#FFFFFF" fill-rule="nonzero">
            <path d="M2.67931412,42.007722 C0.0116745713,41.2134584 0.0116745713,41.2134584 0,38.4129436 C0,36.9597352 0,35.5065269 0,33.665012 L6.00072966,33.665012 C6.36847866,31.4528406 6.73622765,29.6525097 6.9230208,27.828645 C6.90039374,27.1960568 6.69776635,26.5833688 6.33929223,26.0636146 C5.96315321,25.4957711 5.54560703,24.9569293 5.0901131,24.4515536 L5.46953667,23.9338114 L7.22072236,24.3103512 L7.7344035,21.6451554 L9.42721634,23.9985291 L14.0970449,21.6451554 C13.2518523,20.4293787 12.4724128,19.168488 11.7621306,17.8679904 C10.7786045,16.0741805 9.9955122,14.1759543 9.42721634,12.2081265 C8.44071507,7.97205369 9.71324334,5.66574738 14.1437432,3.03585218 L13.630062,0.59422688 C15.2411529,-0.611877183 15.0835462,1.41202427 16.3735863,2.13568671 L17.3542503,0 L18.1889821,0.458907887 L17.8212331,3.02408531 C17.879606,3.10056996 17.961328,3.30649016 18.1130974,3.38885825 C22.3276177,5.7892995 23.6585188,8.75455047 22.0240788,13.3906968 C21.0083911,16.2794631 19.350602,18.9446589 17.9379788,21.7451737 L22.5611091,24.1338481 L24.2072236,21.451002 L24.7150675,24.2515168 L26.7639548,24.2515168 L27.1025173,24.8751609 L24.7676031,26.9167126 L25.5789858,33.4943924 L32,33.4943924 L32,41.3723111 L29.6650857,41.8253355 L26.4370668,64 L5.88398395,64 L2.67931412,42.007722 Z M4.17949653,41.7312006 L7.16818679,62.5820923 L25.1470266,62.5820923 L28.1240423,41.7312006 L4.17949653,41.7312006 Z M23.6818679,33.6591285 C23.7811018,32.6001103 23.9153594,31.9293988 23.9036848,31.2645707 C23.7660372,26.9543189 20.3180478,23.4997102 16.040861,23.386652 C11.7387815,23.3219342 7.90368479,26.9167126 7.74607807,31.188086 C7.67019336,33.2472881 7.95622036,33.6179445 9.98175848,33.6414782 C13.1922656,33.6826623 16.4027727,33.6414782 19.6074425,33.6414782 L23.6818679,33.6591285 Z M30.6866107,35.2653061 L1.72783656,35.2653061 L1.72783656,39.76025 C6.73622765,40.3838941 28.5793506,40.1603236 30.692448,39.4660783 L30.6866107,35.2653061 Z M16.0466983,21.2333149 C17.5235316,18.6975547 18.9653411,16.5265674 20.0569135,14.1731936 C20.6510297,12.7461887 20.9566444,11.2140356 20.9558555,9.66648281 C21.0142284,7.39547711 19.3039037,5.40687626 17.103247,4.75969847 C15.1652682,4.17135503 12.7953302,5.13623828 11.546151,7.001287 C10.5693036,8.48923174 10.3341803,10.3503025 10.9098869,12.0375069 C11.8380153,15.302813 13.4724553,18.132745 16.0583729,21.2391984 L16.0466983,21.2333149 Z" id="Shape"></path>
        </g>
        <g id="Group-26" transform="translate(191.000000, 373.000000)" fill="#FFFFFF" fill-rule="nonzero">
            <path d="M28.8093328,20.1103801 L32,20.4290123 L32,27.8696638 C29.6667882,27.9581728 29.4451331,29.6988486 29.2118119,31.7935601 C28.5701786,37.5407406 27.6777251,43.2525175 26.8494349,48.9760956 C26.6910732,49.6667687 26.4784646,50.3435527 26.2136347,51 L5.93219103,51 C5.09806781,45.2941237 4.2872767,39.6944581 3.46481954,34.088892 C3.23136807,33.0370495 3.0676784,31.9705984 2.97484506,30.8966695 C2.97484506,29.0615842 2.60153117,27.6926459 0,28.3535127 C0,26.772153 0,25.5271272 0,24.2821015 C0,20.5470242 0,20.5470242 3.96646008,19.9982688 C3.96646008,17.7265394 3.96646008,15.3958039 3.96646008,13.0650685 C3.96646008,12.1799791 3.9314619,11.2948898 3.96646008,10.4098004 C4.07728764,8.53341084 4.79475027,7.80173694 6.39300036,7.8607429 C7.83375866,7.91974886 8.3762304,8.53931144 8.51039008,10.4511045 C8.58038644,11.4306035 8.51039008,12.416003 8.51039008,13.4014025 C8.51039008,15.1715813 8.44622676,16.9417601 8.56288735,18.7119389 C8.59788553,19.2429925 9.09369304,20.0985789 9.49033904,20.1752867 C10.656945,20.3936087 10.5636165,19.3728056 10.5636165,18.5998276 C10.5636165,13.8793508 10.5636165,9.15887401 10.5636165,4.43839724 C10.5263169,3.75247975 10.5263169,3.06500674 10.5636165,2.37908925 C10.7327743,0.850834894 11.6252279,0.0188508632 13.036821,0.048353843 C14.4484141,0.0778568228 15.2358731,0.732822975 15.2592052,2.48529998 C15.3175355,7.30018628 15.2592052,12.1209732 15.2592052,16.9358595 C15.2592052,17.7206388 15.2300401,18.5113186 15.3000365,19.2960979 C15.410864,20.4762171 16.2274882,20.316901 17.2366023,20.069076 C17.2832665,19.2665949 17.3707619,18.4051079 17.3707619,17.5495215 C17.3707619,12.6323582 17.3707619,7.71519487 17.3707619,2.79803156 C17.3707619,1.54120462 17.4874225,0.437793177 18.9923441,0.0955586107 C20.742253,-0.305681915 22.0430186,0.567606288 22.124681,2.50890236 C22.2355086,5.15826995 22.1655122,7.81943873 22.1713452,10.4688063 C22.1713452,13.6020228 22.1713452,16.7411398 22.1713452,19.8448533 C23.7229311,20.6886385 24.2245716,20.0631754 24.2245716,18.6647341 C24.2245716,15.9091558 24.2245716,13.1594781 24.2245716,10.4038998 C24.2245716,9.28278653 24.4112286,8.22657985 25.7586584,7.90794767 C27.5085673,7.49490595 28.5818447,8.23248045 28.6751732,10.1324723 C28.7801677,12.1917803 28.7101713,14.2628895 28.7160044,16.3280981 C28.8151659,17.4964161 28.8093328,18.6647341 28.8093328,20.1103801 Z M25.2045206,49.6133599 L28.1210354,28.4243198 L4.17644914,28.4243198 L7.24462268,49.6133599 L25.2045206,49.6133599 Z M1.65074736,26.6010357 L30.6642362,26.6010357 L30.6642362,22.1106822 L1.65658039,22.1106822 L1.65074736,26.6010357 Z M20.3164419,1.34648496 C18.4848706,2.06045707 18.9048487,3.1874709 18.8931826,4.0666597 C18.8523514,8.67502514 18.8931826,13.2833906 18.8931826,17.8976566 C18.8353455,18.3825839 18.8629946,18.8740449 18.9748451,19.3492032 C19.1758712,19.7204016 19.5065963,20.0023545 19.9022968,20.1398831 C20.0189573,20.1870879 20.4855997,19.703239 20.5614291,19.396408 C20.6587448,18.9172589 20.6901512,18.4268061 20.6547576,17.9389608 C20.6547576,13.3305954 20.6547576,8.72222991 20.6547576,4.11386446 C20.6022603,3.29958222 20.4564346,2.47349878 20.3047758,1.36418674 L20.3164419,1.34648496 Z M12.5935108,20.1339825 C13.7192855,20.4113105 13.9234415,19.732742 13.9234415,18.8240502 C13.9234415,13.5135138 13.9234415,8.20297747 13.8826103,2.92784467 C13.8826103,2.43809521 13.3809697,1.95424634 12.9609916,1.19306946 C11.9577105,3.68902155 11.8293839,17.307597 12.5760117,20.1457837 L12.5935108,20.1339825 Z M6.63215458,20.1752867 C7.31461903,17.0479708 7.16879329,11.2417844 6.2413416,9.1765758 C5.90885891,9.7666354 5.45388261,10.1914783 5.45971564,10.6104206 C5.52387896,13.7731401 5.67553773,16.9417601 5.83886256,20.1044795 C6.09694138,20.1521348 6.35824552,20.1797514 6.62048852,20.1870879 L6.63215458,20.1752867 Z M26.6277798,9.24148236 C25.5311703,11.1237725 25.4261757,17.7796447 26.3711265,20.2401932 C26.6219468,20.1575849 27.0944222,20.0808771 27.0944222,19.9923682 C27.2110828,16.8001458 27.3044112,13.6079234 27.3335764,10.415701 C27.3277433,10.0616652 26.872767,9.71943063 26.6161137,9.25328355 L26.6277798,9.24148236 Z" id="Shape"></path>
        </g>
        <g id="Group-32" transform="translate(187.000000, 14.000000)" fill="#FFFFFF" fill-rule="nonzero">
            <path d="M6.39390848,25.7116171 C3.98979889,25.0736553 3.98979889,25.0736553 3.98979889,22.8729797 C3.98979889,21.2341787 3.98979889,19.5895248 3.98979889,17.7049037 L9.99723113,17.4181135 C9.54255319,15.504228 8.24672107,14.4507131 6.97362285,13.6196069 C5.49023608,12.6538849 3.75677645,12.0803045 2.11993588,11.3604027 C1.48338677,11.0794653 0.829787234,10.8453509 0,10.5234436 C3.29641504,7.95403772 8.0648499,8.23497503 14.0040804,11.1848168 C14.7713495,7.01758 16.2774701,3.24248484 19.4147479,0 C22.7793646,2.99081183 24.1320315,6.93563995 25.0982221,11.2784626 C29.6450015,8.46908946 34.1917808,7.84283336 39,10.4473564 C34.9931507,11.6179285 31.3273098,13.1162609 28.9118333,17.4415249 L35.0045176,17.4415249 L35.0045176,25.0970668 L32.8050131,25.6823528 C32.2366657,29.5276823 31.6683183,33.449099 31.0999709,37.3880743 C30.6680268,40.466679 30.2815506,43.5569895 29.8950743,46.6472999 C29.9089448,47.0395208 29.7506855,47.4173473 29.4641351,47.676119 C29.1775847,47.9348907 28.793168,48.0471323 28.417371,47.9817522 C22.5444477,47.9505369 16.6715243,47.9505369 10.798601,47.9817522 C9.8267269,47.9817522 9.46298455,47.5369348 9.33794812,46.6238885 C8.58015156,40.9388098 7.80719907,35.257633 7.01909064,29.5803581 C6.84858642,28.3395516 6.62124745,27.0870394 6.39390848,25.7116171 Z M28.3889537,46.1966297 L31.2704751,25.5887071 L7.96823084,25.5887071 L10.8440688,46.1966297 L28.3889537,46.1966297 Z M33.6802681,19.1037374 L5.59253862,19.1037374 C5.54138735,19.917285 5.46181871,20.5786583 5.46750219,21.2400316 C5.46750219,22.0009034 5.54138735,22.7676282 5.58685514,23.657263 L33.6859516,23.657263 L33.6802681,19.1037374 Z M19.9489945,2.55770013 L19.1874089,2.52258297 C18.4315068,3.83947663 17.61877,5.12710599 16.9140192,6.47911682 C15.1635092,9.94986322 15.1237249,13.2918467 17.6756048,16.4640972 C18.6702128,17.7049037 20.3354707,17.985841 21.1936753,16.768446 C23.0976392,14.07613 24.2911688,11.2257869 22.6145439,7.90721483 C21.7317109,6.13965089 20.8450889,4.36428314 19.9546779,2.58111158 L19.9489945,2.55770013 Z M5.32541533,10.4297978 C6.66103177,11.4247841 7.69542407,12.0803045 8.593413,12.8879993 C9.50670575,13.7254642 10.35077,14.6397116 11.1168755,15.6212853 C12.8901195,17.8629309 13.0265229,17.9273124 15.9876129,17.0376776 C13.9699796,12.4080647 10.1734188,9.94986322 5.33109881,10.4532092 L5.32541533,10.4297978 Z M33.4301953,10.5175907 C28.6049257,10.0727733 24.6435442,12.7358249 23.1487904,17.3186149 C24.6151268,17.4590835 26.2178665,18.2258083 27.2352084,16.6572416 C28.8473082,14.1834901 30.9607996,12.098861 33.4301953,10.546855 L33.4301953,10.5175907 Z" id="Shape"></path>
        </g>
        <g id="Group-31" transform="translate(192.000000, 101.000000)" fill="#FFFFFF" fill-rule="nonzero">
            <path d="M5.58318065,51 L2.44228655,28.9823273 L0,28.3209777 L0,20.9290796 L7.61084646,20.6657104 C7.26410336,18.9698111 7.00248789,17.2566099 6.82704287,15.5329355 C6.76456578,14.4443424 6.82704287,13.1157907 7.35525834,12.2613036 C9.77482594,8.43366996 12.3818248,4.72894193 14.9547453,1.00665596 C15.3592554,0.60986638 15.8139655,0.271247998 16.3065225,0 C17.0960059,1.19979344 17.8059729,2.30009181 18.5329791,3.38868487 C20.0267497,5.63025017 21.3728472,7.99472114 23.076768,10.0724122 C24.8829241,12.3022722 25.4395383,14.5789534 24.6159765,17.3414046 C24.32631,18.3129447 24.434225,19.4132431 24.3376695,20.7066789 L31,20.7066789 L31,28.3151251 C28.9609747,28.3619463 28.5065958,29.7314666 28.2850861,31.8267156 C27.6830341,37.62084 26.7288384,43.3798485 25.8995969,49.156415 C25.776888,49.7709282 25.6233288,50.3784692 25.4395383,50.9765894 L5.58318065,51 Z M27.2229754,28.9823273 C22.8722975,28.3443883 5.95804324,28.5316732 3.93605716,29.2164333 L6.82704287,49.4549002 L24.3774276,49.4549002 L27.2229754,28.9823273 Z M1.45401246,26.7583199 C4.71418102,27.4372275 27.6943936,27.2967638 29.6425431,26.6354143 L29.6425431,22.398095 L1.45969219,22.398095 L1.45401246,26.7583199 Z M22.4690363,20.5779206 C23.5481861,16.5512968 24.5137413,12.7353684 20.3277757,9.6802846 L16.6586662,20.5837732 L22.4690363,20.5779206 Z M11.4333089,9.6685793 C7.29846097,12.875832 8.17314034,16.6917604 9.37724441,20.5662153 L15.1364969,20.5662153 L11.4333089,9.6685793 Z M16.6302675,13.5898554 L17.2550385,13.7946982 C17.7832539,12.2905669 18.3455478,10.7981409 18.8396849,9.27645169 C19.4985343,7.22802387 18.794247,5.73559789 16.6359472,4.56506771 L16.6302675,13.5898554 Z M15.0626603,4.5182465 L14.4378893,4.28414046 C13.8017589,5.59513427 12.5522169,6.97050723 12.6658117,8.21126922 C12.8589227,10.2714023 13.9267131,12.2437457 14.6253206,14.251205 L15.0626603,14.1341519 L15.0626603,4.5182465 Z" id="Shape"></path>
        </g>
        <g id="Group-21" transform="translate(0.000000, 373.000000)" fill="#FFFFFF" fill-rule="nonzero">
            <path d="M31,27.7180351 C28.5469664,28.4761352 28.620614,28.4879805 28.286367,31.034723 C27.4082602,37.6562536 26.4565058,44.2600163 25.5160819,51 L5.60288743,51 L2.4247076,28.4939031 L0,27.8483335 L0,20.3857856 L3.84667398,20.0896528 L2.5380117,10.483103 L3.2688231,10.1514342 L5.89747807,13.3911276 C6.25438596,9.36964348 5.79550439,5.73313204 6.0561038,1.68203461 C8.65076754,3.68981535 8.80939327,6.7459064 10.6959064,8.8839856 L15.6189693,0 L20.8932749,8.94321217 L24.6719664,1.49843224 C25.9806287,3.63651144 25.3347953,5.50214841 25.4311038,7.24933225 C25.5274123,9.10904657 25.4311038,10.9746835 25.4311038,13.2608292 L26.8644006,11.6143305 L28.4959795,9.74277087 C29.1984649,13.6280339 27.2892909,16.6722796 27.5838816,20.0718848 L30.9830044,20.4094763 L31,27.7180351 Z M6.83790205,49.5252584 C12.4521199,49.5252584 17.7207602,49.5252584 22.9837354,49.5252584 C24.4623538,49.5252584 24.496345,48.2637324 24.6436404,47.2272674 C25.2403752,43.1445825 25.8068957,39.0559749 26.3432018,34.9614447 C26.626462,32.7759842 26.8134137,30.5727558 27.0570175,28.2806875 L3.90332602,28.2806875 L6.83790205,49.5252584 Z M1.47295322,26.4979677 L29.5497076,26.4979677 L29.5497076,21.7598421 L1.47295322,21.7598421 L1.47295322,26.4979677 Z M15.6812865,19.7520613 C17.1315789,16.8262687 18.2929459,14.5815817 19.3353436,12.2835908 C19.624269,11.6498664 19.901864,10.6667054 19.6186038,10.1395889 C18.4855629,7.84159796 17.1145833,5.65021484 15.6529605,3.1449309 L11.3530702,10.9095343 L15.6812865,19.7520613 Z M13.9477339,20.4390895 C11.7949561,14.5519684 8.79239766,8.75368714 7.52905702,7.81198467 C7.52905702,10.1336662 7.21180556,12.5501103 7.6310307,14.8303333 C8.05448734,16.6181124 8.92900435,18.2543701 10.1633772,19.5684589 C10.8092105,20.3087911 12.3614766,20.1192661 13.9477339,20.4331669 L13.9477339,20.4390895 Z M24.0034722,7.63430496 L23.4369518,7.45070259 L17.2505482,20.3857856 C18.9784357,20.1488793 20.3664108,20.3857856 21.0688962,19.7935199 C22.1622807,18.8340495 23.2556652,17.3829985 23.5049342,15.9793288 C23.9808114,13.2430612 23.8675073,10.4120311 24.0034722,7.63430496 Z M8.39583333,19.9711996 L4.9683845,15.233074 C5.31396199,20.1192661 5.31396199,20.1192661 8.39583333,19.9711996 Z M25.8163377,20.1784926 L26.4565058,15.9378702 L25.9239766,15.7779584 L23.0913743,20.0185809 L25.8163377,20.1784926 Z" id="Shape"></path>
        </g>
        <g id="Group-28" transform="translate(128.000000, 464.000000)" fill="#FFFFFF" fill-rule="nonzero">
            <path d="M12.6536415,7.04166105 L11.6754724,1.60765808 C14.3370024,2.90683565 13.1711613,5.65349872 14.9853238,7.40946474 L15.1331866,0.0415262235 L15.9634929,0 C17.1008989,2.07037886 15.9634929,4.56788459 16.742616,7.46878792 L18.3804806,1.85681542 C19.978536,3.87973574 18.2724271,5.58824323 18.4771602,8.04422273 L22.1680426,1.87461238 C23.1007155,4.88822974 20.7690332,6.11028718 20.5813612,8.61372523 L24.3632361,4.7399218 C25.1821684,7.65268977 22.3841497,8.21625994 21.7130802,10.2747742 C23.8627775,9.84171498 25.1252981,7.18403667 28.3100349,7.7298099 L24.1016327,11.1290279 L28.7706843,10.8146151 L28.9356081,11.6392072 L25.5233902,12.7841445 L25.5802605,13.2705946 L31,13.2705946 L31,20.9826075 C28.725188,20.7275179 28.5147679,22.2758528 28.2759127,24.2453822 C27.4854155,30.7709316 26.4560631,37.2964811 25.4949551,44 L5.56760227,44 C5.26050266,41.9770797 4.93065493,39.8829716 4.62924234,37.7769988 C3.96954687,33.1972496 3.30416437,28.6175003 2.69565217,24.0318188 C2.36580444,21.5402454 2.41698771,21.5343131 0,20.7927734 L0,13.2468653 L5.56760227,13.2468653 L5.61878554,12.718889 L2.12126215,11.5324255 C2.85488901,9.71120399 3.87855439,10.8146151 4.68042561,10.8442767 C5.5732893,10.8798706 6.46046597,11.1883511 7.52394056,10.9747876 L3.8614933,8.37643252 C4.91928087,7.41539706 4.91928087,7.41539706 8.82627041,9.67561008 C8.35424693,7.70608063 5.92019813,7.17217204 6.11924418,4.87636511 C8.39405614,5.37467979 9.08218675,7.7298099 11.2375711,8.8391533 C10.5210053,7.51031414 9.9466153,6.57894027 9.53146212,5.58824323 C9.11630893,4.59754618 7.88791048,3.80854793 9.3381031,2.31360388 L12.3351679,7.20776594 L12.6536415,7.04166105 Z M27.1783159,21.55211 C23.5670519,20.8995551 6.00550358,21.0537953 3.8614933,21.7597411 L6.78462667,42.5762438 L24.2779307,42.5762438 L27.1783159,21.55211 Z M29.674922,15.0265606 L1.3876353,15.0265606 L1.3876353,19.5054604 L29.674922,19.5054604 L29.674922,15.0265606 Z" id="Shape"></path>
        </g>
        <g id="Group-25" transform="translate(256.000000, 375.000000)" fill="#FFFFFF" fill-rule="nonzero">
            <path d="M10.5829196,6.00532027 C11.2429173,1.56448293 12.7580424,-0.0344519375 15.9145532,0.000561234722 C18.9161079,0.0355744069 20.4082766,1.66368691 20.9764486,5.76022806 C21.5503596,5.41593187 22.0783578,5.11248437 22.6006168,4.832379 C25.0741734,3.52522057 27.6280775,4.05625368 29.2579849,6.20372824 C30.7099798,8.11778165 30.5205892,11.3973488 28.4487703,13.0137902 C26.3769515,14.6302317 23.9206122,15.814844 21.624968,17.1745222 C20.9226225,17.4959139 20.3079873,17.9866687 19.8343656,18.6042267 L31.3642384,18.6042267 L31.3642384,26.190414 C29.315376,26.2429338 28.8562472,27.6201186 28.6324219,29.6917313 C28.018337,35.5681086 27.0656447,41.4036373 26.2277346,47.2566726 C26.0945295,47.8672924 25.9200284,48.4678341 25.7054755,49.0540155 L5.75632774,49.0540155 L2.50799125,26.7914735 L0,26.2429338 L0,18.8843321 C3.95424708,18.5283649 7.9371897,18.8843321 12.5227389,18.662582 C11.541351,18.0498515 11.0650049,17.7113908 10.5542241,17.437121 C8.44797053,16.3050284 6.29580412,15.2546333 4.2412026,14.0408433 C2.84933151,13.3226872 1.87124537,11.9800876 1.60121181,10.41698 C1.30851717,8.40372256 1.54955981,6.4604915 3.32294493,5.16500413 C5.03893933,3.80007656 7.42524859,3.71754595 9.22848955,4.96076063 C9.61874905,5.23503048 9.96883479,5.55014903 10.5829196,6.00532027 Z M4.00589907,26.7097761 L7.04188848,47.6301465 C12.3505656,47.6301465 17.309157,47.6301465 22.2677484,47.6301465 C24.7011312,47.6301465 24.741305,47.5134359 25.0741734,45.0333362 C25.5792151,41.2869268 26.1646044,37.5580239 26.663907,33.8116145 C26.9795581,31.477403 27.1976443,29.1431916 27.4673824,26.7156116 L4.00589907,26.7097761 Z M1.53234248,24.9591175 L30.0614603,24.9591175 L30.0614603,20.2906945 L1.53234248,20.2906945 L1.53234248,24.9591175 Z M15.9662052,16.2991929 C16.9131584,13.7490668 17.7395903,11.7474805 18.3881098,9.68170334 C18.8860579,8.23001553 19.2022824,6.72035955 19.3293239,5.18834625 C19.3911955,4.20959902 19.0518608,3.2484698 18.3919039,2.53320514 C17.731947,1.81794049 16.8102459,1.41235249 15.8456839,1.41275918 C14.0780378,1.41275918 12.0521319,3.33848365 12.2931745,5.21168836 C12.7580424,8.92308461 13.9747339,12.4244018 15.9604661,16.3166995 L15.9662052,16.2991929 Z M17.3378526,16.4392456 L17.9117636,17.0519761 C19.4441061,16.3808903 21.0338397,15.8090085 22.5030519,15.0212121 C24.2063995,14.1840147 25.8183966,13.1669251 27.3124265,11.9867372 C29.6080706,10.0435061 28.850508,6.73476135 26.0785177,5.80107676 C24.6150446,5.29922129 23.0482674,5.80107676 21.9980102,7.61592619 C20.3336682,10.4986774 18.870195,13.5039746 17.3378526,16.4567522 L17.3378526,16.4392456 Z M14.2789067,17.1978643 C12.9818678,13.3172377 11.5700466,10.0026574 9.26292421,7.18409706 C7.6043213,5.15333308 5.81945796,5.12999096 4.09772484,6.82229428 C2.37599171,8.51459761 2.44486104,10.4578287 4.4076368,12.0742701 C7.19684446,14.3734684 10.4738765,15.8031729 14.2789067,17.1978643 Z" id="Shape"></path>
        </g>
        <g id="Group-29" transform="translate(63.000000, 456.000000)" fill="#FFFFFF" fill-rule="nonzero">
            <path d="M8.56339891,12.2558923 L12.8045958,0 C13.4815672,0.98047138 13.9618119,1.47070707 14.2048272,2.07182941 C15.1908695,4.96648004 16.3800234,7.78663159 17.7632667,10.5108866 L21.5184328,0.00583613917 C22.1896181,1.01548822 22.6756489,1.51739618 22.8955199,2.12435466 C24.052736,5.39259259 25.1694495,8.69001122 26.4076707,12.2909091 L35,7.41189675 C34.421392,12.664422 32.1706067,16.7905724 31.2216895,21.4478114 C33.2815341,21.4478114 33.3567532,22.8601571 33.2873202,24.4242424 C33.2178873,25.9883277 33.2873202,27.51156 33.2873202,29.2974186 C30.8803108,29.1923681 30.5273599,30.5755331 30.2843445,32.5656566 C29.5032237,38.9854097 28.444371,45.4051627 27.4665234,52 L7.16316747,52 C6.78128616,49.7530864 6.3299719,47.4127946 6.0059514,45.0608305 C5.38105472,40.8413019 4.65779468,36.6276094 4.30484378,32.3789001 C4.13704745,30.3654321 3.50636469,29.3207632 1.31922632,29.3324355 C1.31922632,27.5057239 1.41758968,25.830752 1.31922632,24.2258137 C1.18036039,22.4749719 1.7068937,21.3894501 3.75516614,21.512009 C2.87568193,16.8022447 0.688543561,12.6294052 0,7.38271605 L8.56339891,12.2558923 Z M26.1762275,50.657688 L29.1502728,29.7701459 L5.3868408,29.7701459 L8.38403042,50.6518519 L26.1762275,50.657688 Z M25.5976194,14.5961841 L21.8829559,3.9627385 C20.1471318,7.69786756 19.5685237,11.240404 17.497107,14.8529742 C15.2752521,11.3512907 15.0033063,7.5694725 13.0533973,4.16116723 C11.5085138,7.66285073 10.9761944,11.2112233 9.19408167,14.4969697 L1.99619772,10.4116723 L5.57778145,21.5937149 L29.167631,21.5937149 C31.1696148,17.1173962 32.3499752,12.9795735 32.2342536,10.8318743 L25.5976194,14.5961841 Z M2.91039841,23.4262626 L2.91039841,27.9200898 L31.6440734,27.9200898 L31.6440734,23.4262626 L2.91039841,23.4262626 Z" id="Shape"></path>
            <path d="M23.6619718,15.8723062 C22.5205357,17.0277985 21.7557734,18.5946702 19.7183099,19 C20.8654532,15.8904553 22.246591,14.8680563 23.6619718,15.8723062 Z" id="Shape"></path>
            <path d="M7.41554512,16 L10.8450704,19.5 C8.33281168,19.4358333 7.45644236,18.6308333 6.90140845,16.4491667 L7.41554512,16 Z" id="Shape"></path>
            <path d="M25.6338028,20 C26.2041672,17.7714286 27.3962286,16.88 29.084507,16 C28.7822139,18.2 28.3601443,18.6914286 25.6338028,20 Z" id="Shape"></path>
            <path d="M15.2341761,19 L11.8309859,15.0373464 C14.2363821,14.8215583 14.8956389,15.4885396 15.7746479,18.4180261 L15.2341761,19 Z" id="Shape"></path>
        </g>
        <g id="Group-30" transform="translate(0.000000, 458.000000)" fill="#FFFFFF" fill-rule="nonzero">
            <path d="M31.8543046,26.6069904 C29.3917346,27.2814017 29.461266,27.2931306 29.1194033,29.8617578 C28.3313809,35.7262036 27.4796213,41.6317004 26.6278618,47.5078751 C26.4862185,48.2003492 26.3043486,48.8837661 26.0831992,49.5545666 L5.87853607,49.5545666 C5.25854784,45.349759 4.63855961,41.2387826 4.04754279,37.1160772 C3.63035445,34.2249054 3.26531465,31.3278692 2.84233203,28.4366975 C2.66270927,27.2168928 2.62214929,27.2227572 0.00892787176,26.6245837 C0.00892787176,24.9884034 0.066870697,23.2583919 0.00892787176,21.5342448 C-0.0606035186,19.9332511 0.240699173,18.9597531 2.17598954,18.9128376 C2.882892,18.9128376 3.71147441,17.892424 4.23295983,17.1535038 C7.66317509,12.327065 11.0180647,7.44784611 14.4135142,2.59208502 C14.9581768,1.81211374 15.5723707,1.09078691 16.4473074,0 C17.2990669,1.17288915 18.017558,2.16398048 18.6896947,3.15507182 C21.7954302,7.72933951 24.8548113,12.3329294 28.0011068,16.8720104 C28.8528663,18.0976796 29.5945345,19.7514533 31.8369218,18.8072775 L31.8543046,26.6069904 Z M7.17066107,48.1412352 L24.9243427,48.1412352 C26.0831992,41.1332225 27.1319644,34.2014477 27.8562497,27.1054683 L4.16922273,27.1054683 L7.17066107,48.1412352 Z M1.64291554,25.2698968 L30.4347054,25.2698968 L30.4347054,20.8422402 L1.64291554,20.8422402 L1.64291554,25.2698968 Z M15.5028393,4.74433662 L15.045091,4.55667435 L10.6704077,10.7436646 C11.4931958,13.1598163 12.2580411,15.353119 12.9881207,17.564015 C13.3995148,18.8072775 14.100623,19.3233488 15.5086336,18.6723953 L15.5028393,4.74433662 Z M17.1947698,18.7486331 C19.2575344,18.6958531 20.0513511,17.3587594 21.4535675,11.8755027 C21.8475787,10.327289 19.2401516,6.04037913 17.1947698,4.87335442 L17.1947698,18.7486331 Z M9.53472834,12.4033028 L5.13686791,18.8541931 L11.7655271,18.8541931 L9.53472834,12.4033028 Z M27.4970042,18.8835153 L22.9137267,12.432625 L20.746665,18.8835153 L27.4970042,18.8835153 Z" id="Shape"></path>
            <path d="M20.9832084,30.0330707 C21.501852,32.644039 19.710174,34.3550817 17.1523179,33.9880068 L20.9832084,30.0330707 Z" id="Shape"></path>
            <path d="M11.2556954,34.5380313 C8.84129833,32.0047796 8.38058005,30.7323701 9.18537907,29.0319683 C10.4508964,30.5646434 11.4073242,32.0684001 11.2556954,34.5380313 Z" id="Shape"></path>
            <path d="M10.2913907,39.8142122 C12.5824503,39.3226218 13.4262165,39.4504353 15.6821192,40.6155044 C14.0883386,41.3528899 12.7054996,41.1759173 10.2913907,39.8142122 Z" id="Shape"></path>
            <path d="M19.6507818,44.6465946 C19.3713886,42.9734866 20.377204,41.7400275 20.8953514,40.3722311 C21.1033533,40.1068685 21.4114413,39.9911387 21.7081316,40.0669195 C21.9497851,40.2797716 22.0793451,40.6307606 22.0484833,40.9889607 C21.5404957,42.3689695 20.9156709,43.7001284 20.336565,45.049606 L19.6507818,44.6465946 Z" id="Shape"></path>
        </g>
    </g>
</svg>