<?xml version="1.0" encoding="UTF-8"?>
<svg width="385px" height="301px" viewBox="0 0 385 301" version="1.1" xmlns="http://www.w3.org/2000/svg" xmlns:xlink="http://www.w3.org/1999/xlink">
    <!-- Generator: Sketch 51.2 (57519) - http://www.bohemiancoding.com/sketch -->
    <title>Logo/Solid Text/Large</title>
    <desc>Created with Sketch.</desc>
    <defs>
        <linearGradient x1="1.2246468e-15%" y1="80%" x2="100%" y2="20%" id="linearGradient-1">
            <stop stop-color="#8FD694" offset="0%"></stop>
            <stop stop-color="#52B788" offset="100%"></stop>
        </linearGradient>
        <linearGradient x1="40.0605433%" y1="21.793832%" x2="78.2418561%" y2="68.2483118%" id="linearGradient-2">
            <stop stop-color="#E56399" offset="0%"></stop>
            <stop stop-color="#FF3B8C" offset="100%"></stop>
        </linearGradient>
        <linearGradient x1="20%" y1="0%" x2="80%" y2="100%" id="linearGradient-3">
            <stop stop-color="#8FD694" offset="0%"></stop>
            <stop stop-color="#52B788" offset="100%"></stop>
        </linearGradient>
    </defs>
    <g id="Mood-Board" stroke="none" stroke-width="1" fill="none" fill-rule="evenodd">
        <g id="Logos" transform="translate(-10.000000, -788.000000)">
            <g id="Logo/Solid-Text/Large" transform="translate(10.000000, 788.000000)">
                <g>
                    <path d="M192.492231,196.408405 C167.181719,211.678316 139.572531,219.313271 109.664666,219.313271 C79.0660175,219.313271 42.1097144,203.329834 -1.20424332,171.362961 C37.883187,139.396087 74.83949,123.41265 109.664666,123.41265 C139.798531,123.41265 171.336054,129.088446 192.490401,145.945667 C213.558599,129.088447 243.536761,123.41265 275.319814,123.41265 C310.14499,123.41265 347.101293,139.396087 386.188723,171.362961 C342.874765,203.329834 305.918462,219.313271 275.319814,219.313271 C245.411946,219.313271 217.802754,211.678314 192.49224,196.4084 Z" id="Combined-Shape" fill-opacity="0.799999952" fill="url(#linearGradient-1)"></path>
                    <path d="M193.809548,0.147750787 C161.842674,44.0004319 145.859237,81.4163842 145.859237,112.395608 C145.859237,143.374831 161.842674,171.91804 193.809548,198.025236 C225.776421,176.197136 241.759858,147.653926 241.759858,112.395608 C241.759858,77.1372887 225.776421,39.7213365 193.809548,0.147750787 Z" id="Path-2" fill="url(#linearGradient-2)"></path>
                    <path d="M110.135429,49.1295991 C78.1685551,92.4435568 62.1851183,129.39986 62.1851183,159.998508 C62.1851183,190.597157 78.1685551,218.789717 110.135429,244.57619 C142.102303,223.016245 158.085739,194.823684 158.085739,159.998508 C158.085739,125.173332 142.102303,88.2170294 110.135429,49.1295991 Z" id="Path-2" fill-opacity="0.799999952" fill="url(#linearGradient-3)" transform="translate(110.135429, 146.852894) rotate(-60.000000) translate(-110.135429, -146.852894) "></path>
                    <path d="M275.564,49.1295991 C243.597127,92.4435568 227.61369,129.39986 227.61369,159.998508 C227.61369,190.597157 243.597127,218.789717 275.564,244.57619 C307.530874,223.016245 323.514311,194.823684 323.514311,159.998508 C323.514311,125.173332 307.530874,88.2170294 275.564,49.1295991 Z" id="Path-2" fill-opacity="0.799999952" fill="url(#linearGradient-3)" transform="translate(275.564000, 146.852894) scale(-1, 1) rotate(-60.000000) translate(-275.564000, -146.852894) "></path>
                    <path d="M239.003378,13.2723975 C207.036505,56.5863552 191.053068,93.5426583 191.053068,124.141307 C191.053068,154.739955 207.036505,182.932516 239.003378,208.718988 C270.970252,187.159043 286.953689,158.966483 286.953689,124.141307 C286.953689,89.3161308 270.970252,52.3598278 239.003378,13.2723975 Z" id="Path-2" fill-opacity="0.899999976" fill="url(#linearGradient-3)" transform="translate(239.003378, 110.995693) scale(-1, 1) rotate(-30.000000) translate(-239.003378, -110.995693) "></path>
                    <path d="M145.500273,13.2723975 C113.533399,56.5863552 97.5499621,93.5426583 97.5499621,124.141307 C97.5499621,154.739955 113.533399,182.932516 145.500273,208.718988 C177.467146,187.159043 193.450583,158.966483 193.450583,124.141307 C193.450583,89.3161308 177.467146,52.3598278 145.500273,13.2723975 Z" id="Path-2" fill-opacity="0.899999976" fill="url(#linearGradient-3)" transform="translate(145.500273, 110.995693) rotate(-30.000000) translate(-145.500273, -110.995693) "></path>
                    <path d="M45.9995117,247.171875 L47.4487305,247.171875 C52.2449784,247.171875 56.1785328,249.863254 59.2495117,255.246094 C59.9741247,255.246094 60.5262025,264.355378 60.9057617,282.574219 C60.9057617,291.028037 58.9044796,296.134757 54.9018555,297.894531 C50.7612098,299.964854 47.172704,301 44.1362305,301 C40.2716278,300.758462 38.3393555,299.792326 38.3393555,298.101562 C37.3732048,287.094346 36.8901367,278.46813 36.8901367,272.222656 L36.4760742,271.601562 C37.4422249,256.695238 38.1323221,249.242188 38.5463867,249.242188 C40.202645,247.861972 42.6869952,247.171875 45.9995117,247.171875 Z M42.894043,257.316406 L42.894043,274.292969 L43.3081055,274.914062 L43.3081055,286.09375 C43.3081055,290.64846 44.1362222,292.925781 45.7924805,292.925781 C46.206545,293.339846 47.1036715,293.546875 48.4838867,293.546875 L48.8979492,293.546875 C52.9005734,292.994789 54.9018555,290.993507 54.9018555,287.542969 C55.31592,284.644517 55.5229492,280.227894 55.5229492,274.292969 L55.5229492,272.636719 C55.5229492,266.805309 54.0047352,261.284531 50.9682617,256.074219 C49.4845303,254.555982 48.1043358,253.796875 46.8276367,253.796875 L46.206543,253.796875 C44.2742416,253.796875 43.170086,254.97004 42.894043,257.316406 Z M74.2075195,248.828125 C81.7987033,248.828125 85.5942383,250.0703 85.5942383,252.554688 C85.7322598,252.554688 85.8012695,252.675455 85.8012695,252.916992 C84.8351189,254.883799 83.1098757,255.867188 80.6254883,255.867188 C76.6228641,255.867188 74.621582,256.712557 74.621582,258.40332 L74.0004883,270.152344 C74.0004883,271.083989 75.3116731,271.722329 77.934082,272.067383 C80.556491,272.515953 81.8676758,273.361322 81.8676758,274.603516 L81.8676758,275.224609 C81.8676758,276.777352 79.5213451,277.950517 74.8286133,278.744141 C73.7244411,279.158205 73.1723633,280.641914 73.1723633,283.195312 L73.1723633,283.816406 C73.1723633,291.097042 74.0694897,294.737305 75.8637695,294.737305 C80.9705659,295.013348 83.5239258,295.530921 83.5239258,296.290039 C83.7999688,297.463222 83.9379883,298.256834 83.9379883,298.670898 C83.9379883,299.913092 80.4184922,300.689452 73.3793945,301 L72.3442383,301 C69.1697432,301 67.5825195,298.136096 67.5825195,292.408203 C67.444498,287.922504 67.3754883,284.851571 67.3754883,283.195312 C67.0994452,283.195312 66.9614258,283.074545 66.9614258,282.833008 L66.9614258,264.251953 C67.3754904,255.660113 68.6866752,250.708665 70.8950195,249.397461 C71.8956756,249.017902 72.9998312,248.828125 74.2075195,248.828125 Z M104.278809,250.070312 C108.246927,250.070312 111.076326,252.347633 112.76709,256.902344 C113.043133,259.283215 113.181152,260.732419 113.181152,261.25 C113.181152,265.114603 112.491055,267.046875 111.11084,267.046875 L110.696777,267.253906 C108.764476,267.253906 107.79834,265.735692 107.79834,262.699219 C106.970211,258.420552 105.590016,256.28125 103.657715,256.28125 L103.243652,256.28125 C100.27619,256.28125 98.3439172,258.351542 97.4467773,262.492188 L97.4467773,263.734375 C97.4467773,267.80601 100.138157,271.325506 105.520996,274.292969 C110.627792,277.847023 113.181152,280.952461 113.181152,283.609375 L113.181152,286.921875 C113.181152,292.132188 111.110861,296.4798 106.970215,299.964844 C105.451978,300.654951 103.657725,301 101.587402,301 C97.2742297,301 94.5828504,299.964854 93.5131836,297.894531 C91.8569253,295.96223 91.0288086,293.33986 91.0288086,290.027344 C91.2703463,287.266913 92.5125213,285.886719 94.7553711,285.886719 C95.7215218,285.886719 96.6876579,288.371069 97.6538086,293.339844 C98.6199593,295.134124 99.6551052,296.03125 100.759277,296.03125 L101.587402,296.03125 C104.416844,296.03125 106.073077,293.132841 106.556152,287.335938 L106.556152,286.300781 C106.556152,282.608705 103.312695,279.089209 96.8256836,275.742188 C92.8230594,272.429671 90.8217773,268.013048 90.8217773,262.492188 C90.8217773,257.178359 92.8920691,253.589853 97.0327148,251.726562 C99.6206184,250.62239 102.035959,250.070312 104.278809,250.070312 Z M126.845215,248.828125 C134.436399,248.828125 138.231934,250.0703 138.231934,252.554688 C138.369955,252.554688 138.438965,252.675455 138.438965,252.916992 C137.472814,254.883799 135.747571,255.867188 133.263184,255.867188 C129.260559,255.867188 127.259277,256.712557 127.259277,258.40332 L126.638184,270.152344 C126.638184,271.083989 127.949368,271.722329 130.571777,272.067383 C133.194186,272.515953 134.505371,273.361322 134.505371,274.603516 L134.505371,275.224609 C134.505371,276.777352 132.15904,277.950517 127.466309,278.744141 C126.362136,279.158205 125.810059,280.641914 125.810059,283.195312 L125.810059,283.816406 C125.810059,291.097042 126.707185,294.737305 128.501465,294.737305 C133.608261,295.013348 136.161621,295.530921 136.161621,296.290039 C136.437664,297.463222 136.575684,298.256834 136.575684,298.670898 C136.575684,299.913092 133.056188,300.689452 126.01709,301 L124.981934,301 C121.807439,301 120.220215,298.136096 120.220215,292.408203 C120.082193,287.922504 120.013184,284.851571 120.013184,283.195312 C119.737141,283.195312 119.599121,283.074545 119.599121,282.833008 L119.599121,264.251953 C120.013186,255.660113 121.32437,250.708665 123.532715,249.397461 C124.533371,249.017902 125.637527,248.828125 126.845215,248.828125 Z M148.47998,249.966797 C158.348519,249.932291 163.282715,250.41536 163.282715,251.416016 C167.319844,254.5215 169.338379,258.834608 169.338379,264.355469 L169.338379,264.769531 C169.338379,268.979188 167.181825,272.791975 162.868652,276.208008 C162.558104,276.691083 162.402832,277.122394 162.402832,277.501953 L162.402832,277.916016 C162.402832,278.364586 164.128075,283.264276 167.578613,292.615234 C168.889818,295.962256 169.54541,297.963538 169.54541,298.619141 C169.54541,299.96485 168.544769,300.758462 166.543457,301 C164.852693,301 163.12745,298.343126 161.367676,293.029297 C157.986148,284.644489 155.967614,279.96908 155.312012,279.00293 C154.759926,278.588865 154.121586,278.381836 153.396973,278.381836 L152.310059,278.381836 C150.58479,278.381836 149.722168,279.744778 149.722168,282.470703 C149.722168,294.237038 148.997566,300.120117 147.54834,300.120117 L146.461426,300.378906 C144.736157,300.378906 143.873535,298.722673 143.873535,295.410156 C143.597492,290.475887 143.459473,286.870129 143.459473,284.592773 C143.459473,282.315418 143.528482,277.50199 143.666504,270.152344 C143.666504,269.945311 143.597494,268.806651 143.459473,266.736328 C143.597494,264.942048 143.666504,262.492203 143.666504,259.386719 L143.666504,258.092773 C143.873536,254.193665 144.442866,251.830082 145.374512,251.001953 L148.47998,249.966797 Z M149.722168,257.005859 L149.722168,259.852539 C149.722168,262.1644 149.653158,265.252585 149.515137,269.117188 C149.515137,271.705091 150.584787,272.999023 152.724121,272.999023 C156.209165,272.999023 159.22834,271.774101 161.781738,269.324219 C163.230964,267.633455 163.955566,265.68393 163.955566,263.475586 C163.955566,259.162413 161.937032,256.367519 157.899902,255.09082 C157.140784,254.952799 156.416182,254.883789 155.726074,254.883789 C151.72345,254.883789 149.722168,255.591139 149.722168,257.005859 Z M196.459473,249.863281 L198.943848,249.863281 C201.8423,250.518883 203.291504,251.554029 203.291504,252.96875 C203.291504,254.76303 200.738144,255.660156 195.631348,255.660156 C193.699046,256.074221 192.73291,256.488279 192.73291,256.902344 C192.594889,257.143881 192.525879,257.48893 192.525879,257.9375 C192.525879,264.907587 192.732908,276.63924 193.146973,293.132812 C193.146973,298.239609 192.525885,300.792969 191.283691,300.792969 L190.248535,301 C187.902169,301 186.729004,298.791689 186.729004,294.375 C186.452961,287.059859 186.314941,281.608091 186.314941,278.019531 C186.314941,274.465477 186.452961,269.427767 186.729004,262.90625 C186.729004,258.627583 186.107916,256.488281 184.865723,256.488281 L178.861816,256.488281 C176.791494,256.315754 175.756348,255.280608 175.756348,253.382812 C175.756348,251.83007 177.205552,250.932944 180.104004,250.691406 C184.520693,250.13932 189.972461,249.863281 196.459473,249.863281 Z" id="Desert-Rose" fill="#52B788"></path>
                    <path d="M237.348145,249.966797 C247.216683,249.932291 252.150879,250.41536 252.150879,251.416016 C256.188008,254.5215 258.206543,258.834608 258.206543,264.355469 L258.206543,264.769531 C258.206543,268.979188 256.049989,272.791975 251.736816,276.208008 C251.426268,276.691083 251.270996,277.122394 251.270996,277.501953 L251.270996,277.916016 C251.270996,278.364586 252.996239,283.264276 256.446777,292.615234 C257.757982,295.962256 258.413574,297.963538 258.413574,298.619141 C258.413574,299.96485 257.412933,300.758462 255.411621,301 C253.720857,301 251.995614,298.343126 250.23584,293.029297 C246.854313,284.644489 244.835778,279.96908 244.180176,279.00293 C243.62809,278.588865 242.98975,278.381836 242.265137,278.381836 L241.178223,278.381836 C239.452954,278.381836 238.590332,279.744778 238.590332,282.470703 C238.590332,294.237038 237.86573,300.120117 236.416504,300.120117 L235.32959,300.378906 C233.604321,300.378906 232.741699,298.722673 232.741699,295.410156 C232.465656,290.475887 232.327637,286.870129 232.327637,284.592773 C232.327637,282.315418 232.396646,277.50199 232.534668,270.152344 C232.534668,269.945311 232.465658,268.806651 232.327637,266.736328 C232.465658,264.942048 232.534668,262.492203 232.534668,259.386719 L232.534668,258.092773 C232.7417,254.193665 233.31103,251.830082 234.242676,251.001953 L237.348145,249.966797 Z M238.590332,257.005859 L238.590332,259.852539 C238.590332,262.1644 238.521322,265.252585 238.383301,269.117188 C238.383301,271.705091 239.452952,272.999023 241.592285,272.999023 C245.077329,272.999023 248.096504,271.774101 250.649902,269.324219 C252.099128,267.633455 252.82373,265.68393 252.82373,263.475586 C252.82373,259.162413 250.805196,256.367519 246.768066,255.09082 C246.008948,254.952799 245.284346,254.883789 244.594238,254.883789 C240.591614,254.883789 238.590332,255.591139 238.590332,257.005859 Z M278.495605,247.585938 C282.360208,247.585938 285.534656,250.070288 288.019043,255.039062 C288.847172,258.903665 289.26123,263.596327 289.26123,269.117188 C289.26123,284.851641 288.709153,292.71875 287.60498,292.71875 C285.327625,298.239611 281.325061,301 275.597168,301 C270.731909,301 267.488452,298.44664 265.866699,293.339844 C265.452635,290.475897 265.038576,285.162148 264.624512,277.398438 C264.624512,266.080673 265.728667,258.213564 267.937012,253.796875 C270.800958,249.656229 274.320454,247.585938 278.495605,247.585938 Z M270.628418,286.09375 C271.318526,292.166697 272.83674,295.203125 275.183105,295.203125 C275.183105,295.341147 275.459144,295.410156 276.01123,295.410156 C279.461769,295.410156 281.73909,293.546894 282.843262,289.820312 C283.395348,285.50714 284.154455,278.744187 285.120605,269.53125 C284.706541,269.53125 284.499512,269.393231 284.499512,269.117188 L284.499512,262.90625 C284.499512,258.558572 283.326346,255.660163 280.97998,254.210938 C280.117346,253.934894 279.427249,253.796875 278.909668,253.796875 C274.492979,255.280606 272.284668,258.040995 272.284668,262.078125 C271.59456,265.011082 271.042483,272.740172 270.628418,285.265625 L270.628418,286.09375 Z M309.343262,250.070312 C313.311381,250.070312 316.140779,252.347633 317.831543,256.902344 C318.107586,259.283215 318.245605,260.732419 318.245605,261.25 C318.245605,265.114603 317.555508,267.046875 316.175293,267.046875 L315.76123,267.253906 C313.828929,267.253906 312.862793,265.735692 312.862793,262.699219 C312.034664,258.420552 310.654469,256.28125 308.722168,256.28125 L308.308105,256.28125 C305.340643,256.28125 303.40837,258.351542 302.51123,262.492188 L302.51123,263.734375 C302.51123,267.80601 305.20261,271.325506 310.585449,274.292969 C315.692246,277.847023 318.245605,280.952461 318.245605,283.609375 L318.245605,286.921875 C318.245605,292.132188 316.175314,296.4798 312.034668,299.964844 C310.516431,300.654951 308.722178,301 306.651855,301 C302.338683,301 299.647304,299.964854 298.577637,297.894531 C296.921378,295.96223 296.093262,293.33986 296.093262,290.027344 C296.334799,287.266913 297.576974,285.886719 299.819824,285.886719 C300.785975,285.886719 301.752111,288.371069 302.718262,293.339844 C303.684412,295.134124 304.719558,296.03125 305.82373,296.03125 L306.651855,296.03125 C309.481297,296.03125 311.13753,293.132841 311.620605,287.335938 L311.620605,286.300781 C311.620605,282.608705 308.377148,279.089209 301.890137,275.742188 C297.887513,272.429671 295.88623,268.013048 295.88623,262.492188 C295.88623,257.178359 297.956522,253.589853 302.097168,251.726562 C304.685072,250.62239 307.100412,250.070312 309.343262,250.070312 Z M331.909668,248.828125 C339.500852,248.828125 343.296387,250.0703 343.296387,252.554688 C343.434408,252.554688 343.503418,252.675455 343.503418,252.916992 C342.537267,254.883799 340.812024,255.867188 338.327637,255.867188 C334.325013,255.867188 332.32373,256.712557 332.32373,258.40332 L331.702637,270.152344 C331.702637,271.083989 333.013822,271.722329 335.63623,272.067383 C338.258639,272.515953 339.569824,273.361322 339.569824,274.603516 L339.569824,275.224609 C339.569824,276.777352 337.223494,277.950517 332.530762,278.744141 C331.42659,279.158205 330.874512,280.641914 330.874512,283.195312 L330.874512,283.816406 C330.874512,291.097042 331.771638,294.737305 333.565918,294.737305 C338.672714,295.013348 341.226074,295.530921 341.226074,296.290039 C341.502117,297.463222 341.640137,298.256834 341.640137,298.670898 C341.640137,299.913092 338.120641,300.689452 331.081543,301 L330.046387,301 C326.871892,301 325.284668,298.136096 325.284668,292.408203 C325.146646,287.922504 325.077637,284.851571 325.077637,283.195312 C324.801594,283.195312 324.663574,283.074545 324.663574,282.833008 L324.663574,264.251953 C325.077639,255.660113 326.388824,250.708665 328.597168,249.397461 C329.597824,249.017902 330.70198,248.828125 331.909668,248.828125 Z" id="Combined-Shape" fill="#E56399"></path>
                </g>
            </g>
        </g>
    </g>
</svg>